<?xml version="1.0" encoding="UTF-8"?>
<!DOCTYPE svg PUBLIC "-//W3C//DTD SVG 1.0//EN" "http://www.w3.org/TR/2001/REC-SVG-20010904/DTD/svg10.dtd">
<!-- Creator: CorelDRAW 2021 (64-Bit) -->
<svg xmlns="http://www.w3.org/2000/svg" xml:space="preserve" width="44.4498mm" height="44.4498mm" version="1.0" style="shape-rendering:geometricPrecision; text-rendering:geometricPrecision; image-rendering:optimizeQuality; fill-rule:evenodd; clip-rule:evenodd"
viewBox="0 0 44449.8 44449.8"
 xmlns:xlink="http://www.w3.org/1999/xlink"
 xmlns:xodm="http://www.corel.com/coreldraw/odm/2003">
 <defs>
  <style type="text/css">
   <![CDATA[
    .fil2 {fill:black}
    .fil1 {fill:#F9AA75}
    .fil0 {fill:white}
   ]]>
  </style>
 </defs>
 <g id="Layer_x0020_1">
  <metadata id="CorelCorpID_0Corel-Layer"/>
  <path class="fil0" d="M-42.4 42.2l22225 0 22225 0 0 22225 0 22225 -22225 0 -22225 0 0 -22225 0 -22225z"/>
  <g id="_2580705400656">
   <path class="fil1" d="M26118.5 17700.6c0,456.4 111.6,811 436.1,1135.5 192.6,192.6 750.2,476.6 922.6,496.8l0 50.9c-628.2,0 -1429.3,91.4 -2057.6,223.3 -223.2,50.8 -395.1,101.2 -587.7,162 -192.6,60.7 -374.9,152.1 -527,243.4l-577.9 547.3c-669.2,1023.8 -30.6,2169.2 811,2686.3l608 365c-354.6,0 -770.5,40.5 -1104.9,71.1 -598.1,71.1 -1328.1,223.3 -1804.2,577.9 -547.2,415.4 -577.8,1125.1 -202.5,1622 121.5,172.3 405.5,405.4 587.8,517.1 344.7,202.5 517.1,273.6 892,415.3l162 71.2c-932.5,0 -1895.6,50.8 -2757.5,304.2 -1003.6,304.2 -1550.8,608 -2270.4,1328.1 -182.3,182.2 -618.4,719.6 -658.9,912.2l527 -598.1c983.3,-983.3 2169.2,-1398.7 3588.2,-1398.7 861.8,0 1571.1,101.2 2382,192.6 385.3,40.5 1753.9,293.9 2220.1,374.9 1541,284 3486.9,649 4886.2,-202.5 395.1,-253.4 820.8,-780.4 557.6,-1277.2 -50.9,-101.3 -111.6,-121.5 -131.9,-212.9 324.5,0 983.4,-172.4 1287.6,-284 517.1,-182.3 1104.9,-506.7 1510.3,-871.7 415.4,-385.3 820.9,-1023.9 820.9,-1601.8 0,-405.4 -30.6,-669.2 -293.9,-1013.4 -415.3,-567.5 -1145.3,-800.6 -1824.4,-871.8 -172.4,-20.2 -324.5,-50.8 -506.8,-50.8 30.7,-20.3 0,-10.4 50.9,-30.7 40.5,-10.3 30.6,-10.3 81,-30.6l932.5 -405.5c517.1,-263.7 963.1,-517.1 1368.6,-912.2 40.5,-30.6 71.1,-50.9 101.2,-81 374.9,-344.8 699.4,-902.4 699.4,-1459.5 0,-557.6 -293.9,-1064.3 -608,-1307.8 -902.4,-689.5 -2311,-436.1 -3365.4,-212.9 -527,111.6 -1196.3,121.5 -1733.6,40.5 -618.4,-81 -1541,-425.7 -2149,-709.7 -506.7,-243.5 -861.8,-314.2 -1398.7,-81 -202.5,81 -284,141.7 -425.7,284 -253.4,263.7 -446,587.7 -446,993.2l-1 -1z"/>
   <path class="fil2" d="M15394 23549.4c0,50.8 10.3,40.5 -30.7,40.5 0,141.7 -50.8,324.5 -81,466.2 -20.2,141.8 -81,354.6 -81,496.9l-20.2 60.7 -273.6 2068c-40.5,253.3 -40.5,476.6 -71.2,719.6 -40.5,304.2 -30.6,243.5 -223.2,567.5 -253.4,425.7 -567.5,790.7 -902.4,1145.3 -273.6,304.3 -526.9,496.9 -770.4,730 -253.4,243.5 -800.7,658.9 -1084.6,871.8l-1743.5 1206.1c-40.5,30.6 -81,50.8 -121.5,81 -324.5,212.8 -638.6,395.1 -963.1,607.9l-1936.1 1216.5c-111.6,71.1 -131.9,91.4 -223.2,172.4 -101.3,91.4 -101.3,71.1 -202.5,192.6 -233.2,314.1 -405.5,618.4 -456.4,912.2l0 405.5c60.7,284 253.4,537.4 618.4,750.3l1591.3 770.5c141.8,60.7 1023.9,415.3 1176,425.7 40.5,0 30.6,-10.4 30.6,30.6l730 212.9c253.4,60.7 476.6,111.6 770.5,172.4 892,162 963.1,81 1774.1,81 50.8,-30.7 10.3,-20.3 101.2,-20.3 334.4,10.4 1348.3,-131.9 1723.2,-212.9 760.1,-182.2 1479.7,-304.2 2047.7,-871.7 415.4,-405.5 658.9,-993.2 942.9,-1500.5 60.7,-121.5 101.2,-212.8 172.4,-324.5 364.9,-607.9 445.9,-820.8 952.7,-1459.4l223.2 -273.6c50.9,-50.9 71.1,-60.8 121.5,-121.5 111.6,-152.2 436.1,-456.4 587.8,-608 182.2,-182.3 598.1,-506.8 800.6,-669.3 669.2,-547.2 577.8,-385.2 1165.6,-679.1 40.5,-20.2 40.5,-20.2 81,-50.9 -243.5,10.4 -466.3,101.3 -709.8,101.3 0,40.5 10.4,30.6 -30.6,30.6 -141.7,0 -436.1,71.1 -557.6,101.3 -1054,293.8 -1328.1,486.5 -2351.9,1003.6 -162,81 -293.9,141.7 -466.3,212.8 -101.2,40.5 -405.5,152.2 -517.1,152.2 0,40.5 0,30.6 -40.5,30.6 -263.7,-10.4 -436.1,91.4 -739.9,30.6 -111.6,-20.2 -253.3,-50.9 -334.3,-91.4 -121.5,-50.8 -172.4,-91.3 -263.8,-152.1l-30.6 -30.6c-131.9,-91.4 -314.1,-415.4 -334.4,-628.3l-30.6 -30.6c0,-131.8 -50.9,-344.7 -71.1,-476.6 -40.5,-324.5 -30.6,-1317.7 -30.6,-1622 0,-30.6 -10.4,-101.2 0,-131.8 10.3,-131.9 -10.4,-20.3 20.2,-71.1 0,-233.2 10.4,-436.2 30.6,-658.9 20.3,-192.6 60.8,-385.3 50.9,-628.2l30.6 -50.9c0,-344.8 81,-567.5 81,-922.6 983.4,-527 2037.4,-1328.1 2858.7,-2088.2l1277.3 -1216.5c192.6,-212.9 405.4,-395.1 587.7,-618.4l719.6 -780.3c365,-385.3 1561.2,-1865 1581.5,-2118.9 -131.9,30.7 -273.6,162 -415.4,263.8l-993.2 770.5c-71.1,60.7 -131.9,101.2 -202.5,162 -851.5,669.2 -1541,1196.2 -2442.9,1814.5 -141.7,101.3 -263.7,182.3 -415.3,284 -152.1,101.3 -273.6,192.7 -425.8,284 -293.8,172.4 -1571.1,983.4 -1794.3,1044.1 0,-284 162,-912.2 212.9,-1236.7 71.1,-415.4 162,-820.8 263.7,-1206.1 50.9,-223.2 10.4,-141.7 354.6,-374.9 506.8,-334.3 1266.9,-841.1 1713.4,-1206.1l2017.1 -1652.1c141.7,-131.8 669.2,-618.3 689.4,-780.3l-709.7 314.1c-91.4,40.5 -162,71.1 -253.4,111.6 -162,71.1 -304.2,141.8 -466.2,223.3 -679.1,314.1 -1490.1,638.6 -2189.5,932.4 -71.1,30.7 -202.5,81 -263.7,101.3l395.1 -760.1c253.4,-415.4 415.4,-760.1 730,-1236.7 750.2,-1104.9 811,-1206.1 1662.5,-2220.1l374.8 -405.5c20.3,-20.3 20.3,-20.3 40.5,-40.5l669.3 -618.4c50.8,-50.8 60.7,-50.8 121.5,-101.2l851.4 -679.1c304.3,-223.3 608,-456.4 922.7,-658.9l30.6 -30.6c243.5,-172.4 1682.7,-1155.7 1824.4,-1287.6 395.2,-395.1 -152.1,-719.6 -284,-1277.2l-20.2 -30.7c-20.3,-172.3 -141.8,-395.1 -162,-567.5 -40.5,0 -30.6,10.4 -30.6,-40.5 -60.8,-283.9 -273.6,-607.9 -415.4,-831.2 -91.4,-131.9 -172.4,-233.1 -263.7,-365 -81,-111.6 -192.7,-314.1 -284,-374.9 0,60.8 506.7,1196.3 608,1520.8 30.6,121.5 71.1,273.6 111.6,415.3 40.5,162 81,284 121.5,425.8 111.6,405.5 273.6,598.1 314.1,760.1 -60.7,91.4 -253.4,212.9 -354.6,284 -131.9,101.2 -243.5,182.2 -385.3,273.6l-385.2 243.5c-141.7,91.4 -253.4,172.4 -395.1,253.4 -273.6,162 -537.4,324.5 -790.8,496.8l-395.1 263.8c-547.2,385.2 -800.6,628.2 -1256.9,1003.6l-344.8 304.2c-71.1,50.9 -111.6,101.3 -172.4,162 -212.8,212.9 -456.3,436.1 -648.9,649l-304.3 354.6c-263.7,334.4 -587.7,689.5 -861.8,1064.4l-273.7 385.2c-354.6,577.9 -638.6,942.9 -993.2,1601.7 -50.9,81 -81,121.5 -121.5,202.5l-750.2 1520.8c-243.5,587.7 -324.5,780.3 -496.9,1459.4 -40.5,162 -81,354.6 -121.5,527 -30.6,121.5 -101.2,425.8 -101.2,547.3l1 -0.5z"/>
   <path class="fil2" d="M31156.8 72.8c-172.4,0 -233.2,0 -365,20.3 -131.9,20.2 -212.9,50.8 -365,50.8 0,40.5 10.3,30.7 -30.7,30.7 -131.8,0 -293.8,50.8 -405.4,71.1l-1196.3 273.6 -30.6 20.3c-131.9,0 -436.1,91.3 -547.2,131.8 -101.3,30.7 -182.3,40.5 -284,60.8 -91.4,30.6 -172.4,60.7 -263.8,71.1l-30.6 30.6c-202.5,10.4 -446,111.6 -649,162 -111.6,30.6 -192.6,50.9 -304.2,91.4 -111.6,30.6 -212.9,71.1 -334.4,81l-20.2 30.6c-243.5,20.3 -1692.6,547.3 -1926.2,649 -567.5,243.5 -1013.5,750.2 -1328.1,1266.9 -101.3,172.3 -212.9,395.1 -284,587.7 -40.5,101.2 -212.9,537.4 -212.9,649 0,40.5 10.4,30.6 -30.6,30.6 -20.3,212.9 -293.9,922.6 -314.1,1176 20.2,-30.6 0,0 30.6,-50.9l101.2 -212.9c40.5,-91.3 101.3,-192.6 131.9,-293.8l20.3 -20.3 445.9 -973c395.2,-780.3 882.1,-1530.6 1733.6,-1844.7l547.3 -172.4 30.6 -30.6 3486.9 -892c141.8,-30.6 385.3,-101.2 517.1,-101.2 0,-40.5 -10.3,-30.6 40.5,-30.6 111.7,0 284,-60.8 415.4,-81 152.1,-20.3 284,-81 446,-81l20.2 -20.3c182.3,0 354.7,-60.7 557.7,-81l587.7 -71.1c192.6,-20.3 415.4,0 527,81 111.6,81 152.1,304.2 182.2,476.6 152.2,922.6 324.5,1561.2 871.8,2352 517.1,739.8 882.1,1165.6 1388.8,1844.7 649,871.7 932.5,1459.4 1348.4,2523.8 273.6,679.1 365,1125.1 557.6,1703 30.6,101.2 40.5,182.2 71.1,273.6 101.2,314.1 182.2,669.2 263.7,1013.5 40.5,152.1 91.4,344.7 131.9,506.7 81,365 496.9,2422.6 496.9,2757.5l20.2 30.6c0,172.3 20.3,223.2 40.5,374.8 30.6,152.2 30.6,243.5 50.9,405.5 20.2,253.4 71.1,486.5 71.1,780.4 40.5,0 20.3,-10.4 20.3,40.5 0,324.5 81,942.9 81,1277.2 0,162 0,324.5 0,486.5 50.8,50.9 50.8,1054 0,1084.6 0,141.8 0,284 0,425.8 0,172.3 -30.7,223.2 -20.3,395.1 0,284 -71.1,506.7 -50.9,811l-30.6 50.8c0,253.4 -50.9,374.9 -50.9,608l-30.6 60.8c0,233.1 -81,395.1 -81,618.3 0,50.9 20.3,40.5 -20.2,40.5 0,374.9 -436.1,1865 -567.5,2260.6l-496.9 1236.7c-223.2,496.9 -517.1,993.3 -820.8,1459.5 -365,547.3 -486.5,669.3 -882.1,1115.2 -1054,1196.3 -2037.4,1865 -3477.1,2493.7 -902.3,395.2 -1571.1,577.9 -2392.4,892 -71.2,20.3 -50.9,10.4 -101.3,50.9 172.4,0 1044.1,-141.7 1266.9,-172.4 141.7,-30.6 273.6,-81 405.5,-81 0,-40.5 -10.4,-30.6 30.6,-30.6 212.8,-10.4 415.3,-141.7 598.1,-162l30.6 -20.2c91.4,-20.3 192.6,-50.9 284,-91.4l820.9 -354.6c0,-40.5 -10.4,-30.7 30.6,-30.7 557.6,-293.8 922.6,-496.8 1419,-882.1 1611.5,-1196.2 2585,-2534.2 3466.6,-4277.6 111.7,-233.1 598.1,-1449.6 618.4,-1713.4 0,-40.5 -10.4,-40.5 30.6,-40.5l354.6 -1611.6c30.7,-202.5 91.4,-415.3 91.4,-607.9l20.3 -50.9 91.3 -820.9c30.7,-212.9 71.2,-669.2 60.8,-882.1 10.4,-91.4 -10.4,-40.5 30.6,-101.2 0,-111.7 0,-233.2 0,-344.8 10.4,-121.5 30.6,-162 30.6,-314.1 0,-223.2 -20.2,-456.4 10.4,-669.2 30.6,-233.2 10.4,-446 -10.4,-649 -20.2,-223.3 10.4,-476.6 0,-699.4 -10.3,-121.5 -30.6,-162 -30.6,-314.1 0,-111.6 10.4,-243.5 0,-344.7l-182.2 -1915.9 -30.7 -50.9c20.3,-304.2 -253.3,-1591.3 -253.3,-1753.8l-30.7 -60.7c0,-141.8 -202.5,-983.4 -243.5,-1196.3 -30.6,-131.8 -81,-273.6 -101.2,-405.5l-20.3 -20.2c0,-131.9 -253.3,-993.2 -324.4,-1196.2l-121.5 -395.2c-40.5,0 -30.7,0 -30.7,-40.5 0,-81 -50.8,-172.3 -71.1,-263.7l-699.3 -1743.5c-669.3,-1611.6 -1915.9,-2615.2 -2686.4,-3902.8 -172.3,-284 -496.8,-912.2 -527,-1216.4 -40.5,0 -30.6,0 -30.6,-40.5 0,-233.2 -182.2,-1013.5 -334.3,-1257 -60.8,-91.4 -101.3,-141.8 -192.7,-202.5 -141.7,-111.6 -304.2,-152.1 -476.6,-162l-557.6 0c0,40.5 10.4,30.6 -30.6,30.6l2.5 -0.5z"/>
   <path class="fil2" d="M27375.5 41877c-60.8,-20.2 -30.7,0 -60.8,-30.6 111.6,0 30.6,-10.4 60.8,30.6zm1865.4 2615.2l-111.6 0c-81,-10.4 -162,-40.5 -253.4,-91.4 -476.6,-263.7 -1804.2,-1236.7 -2189.4,-1550.8 -284,-243.5 -952.8,-730 -1287.6,-861.9 -263.8,-111.6 -1378.5,-476.6 -1662.5,-486.5l-30.6 -30.6 -1054 -202.5c-162,-40.5 -344.7,-81 -496.9,-131.9 -638.6,-212.8 -293.8,-415.3 -101.2,-425.7 111.6,0 60.7,0 81,-20.2l436.1 0c0,0 10.4,0 10.4,10.3 10.3,10.4 20.2,0 20.2,10.4 40.5,0 40.5,0 81,0 223.3,0 374.9,30.6 587.8,71.1 121.5,10.4 192.6,20.3 293.8,40.5 71.2,20.3 182.3,50.9 273.7,50.9l50.8 20.2c111.6,10.4 233.1,50.9 354.6,71.2 334.4,71.1 649,172.3 952.8,243.5 -30.6,-121.5 -101.3,-456.4 -101.3,-577.9 0,-40.5 10.4,-30.6 -30.6,-30.6 0,-243.5 -436.1,-1844.7 -446,-1956.4l-20.2 -30.6 -557.6 -1885.2c-101.3,-293.9 -202.5,-608 -304.3,-902.4l-527 -1307.8c-40.5,-71.1 -60.7,-131.9 -101.2,-212.9 -131.9,-284 -162,-141.7 -517.1,-374.8 -374.9,-253.4 -679.2,-506.8 -892,-922.7 -253.4,-517.1 -101.3,-760.1 -91.4,-1003.6l20.3 -30.6c40.5,-395.1 719.6,-1297.5 882.1,-1814.6 101.2,-284 60.7,-476.6 71.1,-780.3l-30.6 -60.8c-10.4,-314.1 -395.2,-1084.6 -415.4,-1358.2 101.2,81 395.1,517.1 466.2,658.9 284,537.3 456.4,1165.6 253.4,1774 -50.9,162 -91.4,253.4 -152.1,395.2l-182.3 374.8 -20.2 30.7c-20.3,50.8 -243.5,476.6 -324.5,729.9 -131.9,425.8 -40.5,882.1 273.6,1145.4 233.1,192.6 739.9,506.7 1023.9,537.4l20.2 20.2c91.4,10.4 111.6,20.3 202.5,40.5 71.1,10.4 111.6,10.4 182.3,20.3 121.5,20.2 243.5,20.2 405.5,20.2l20.2 -20.2c223.2,0 415.4,-91.4 557.6,-162l20.3 -30.7c324.5,-162 517.1,-517.1 587.7,-882.1 121.5,-649 -10.4,-1226.3 -10.4,-1713.3 0,-324.5 -10.3,-780.4 30.7,-1064.4 60.7,-314.1 182.2,-790.7 466.2,-983.3 0,162 -71.1,223.2 -71.1,385.2 -40.5,0 -30.6,-10.3 -30.6,40.5 0,111.6 -50.9,284 -71.2,425.8 -71.1,517.1 71.2,1155.7 71.2,1378.4 0,50.9 -10.4,40.5 30.6,40.5 0,172.4 30.6,314.2 50.8,486.5 20.3,162 20.3,293.9 20.3,496.9 0,50.9 -10.4,40.5 30.6,40.5l0 243.5 -30.6 60.7c0,304.3 -50.9,506.8 -131.9,730 -91.3,243.5 -172.3,354.6 -324.5,547.3 -71.1,91.3 -141.7,131.8 -233.1,212.8 -212.9,172.4 -608,344.8 -912.2,374.9l841.1 3405.9c0,40.5 -10.4,30.7 30.6,30.7 0,152.1 71.1,223.2 81,395.1l20.3 20.2c10.3,152.2 50.8,141.8 50.8,293.9 0,40.5 -10.3,30.6 30.7,30.6 0,121.5 81,354.6 111.6,486.5l334.3 1449.6c0,40.5 -10.3,30.6 30.7,30.6 0,121.5 50.8,263.8 81,385.3 20.2,111.6 71.1,284 71.1,395.1 0,50.9 -10.4,40.5 30.6,40.5 30.6,50.9 10.4,40.5 111.6,60.7l1216.5 60.8c212.9,10.4 456.4,40.5 689.5,50.9 212.9,10.3 436.1,71.1 649,71.1l60.7 30.6c192.6,0 861.9,162 952.8,385.2 172.3,446 -841.2,223.3 -952.8,223.3l-30.6 -30.6c-192.6,0 -304.2,-81 -486.5,-81 0,-40.5 10.4,-20.3 -40.5,-20.3 -101.2,-10.4 -314.1,-60.7 -436.1,-91.4 -101.2,-20.2 -293.9,-71.1 -425.7,-60.7 50.8,30.6 1824.4,638.6 2544.5,1095 334.4,223.2 547.3,334.3 547.3,658.8 -71.2,40.5 -111.7,91.4 -253.4,71.2 -40.5,-10.4 -182.3,-40.5 -253.4,-60.8 -152.1,-50.9 -293.8,-121.5 -446,-182.2 -456.3,-192.7 -891.9,-466.3 -1297.4,-649 -273.7,-121.5 -1084.6,-557.6 -1338,-577.9l689.5 486.5c233.1,182.3 456.3,334.4 679.1,506.7l638.6 547.3c141.7,111.6 172.4,172.4 293.9,304.2 233.1,263.8 192.6,395.2 60.7,415.4z"/>
   <path class="fil2" d="M22317.4 5556.6c0,30.6 10.4,20.2 -30.6,20.2 -91.4,10.4 -233.1,50.9 -324.5,71.2 -101.2,30.6 -192.6,81 -293.8,91.3 0,30.7 10.3,20.3 -40.5,20.3 -131.9,10.4 -517.2,162 -679.2,212.9 -101.2,40.5 -202.5,71.1 -324.5,121.5 -111.6,40.5 -223.2,91.3 -334.3,111.6l-20.3 30.6c-81,20.2 -233.1,81 -304.2,111.6 -91.4,40.5 -223.3,101.3 -304.3,121.5l-20.2 30.6c-162,30.7 -1013.5,476.7 -1246.6,587.8 -456.4,233.1 -861.9,537.3 -1165.6,699.3l-30.6 20.3c-81,50.9 -131.9,91.4 -223.3,152.1 -284,202.5 -882.1,608 -1115.2,841.1l-425.7 365c-253.4,253.4 -1419,1378.5 -1176,1895.6 101.2,91.4 993.2,-425.7 1165.6,-517.1 182.2,-101.3 374.9,-202.5 567.5,-293.9 101.2,-50.8 192.6,-91.3 293.8,-152.1 385.3,-192.6 831.3,-365 1236.8,-527 304.2,-121.5 1429.3,-496.9 1682.7,-506.7 0,-30.7 0,-20.3 40.5,-20.3 101.2,0 162,-30.6 243.5,-50.9 101.2,-10.3 152.1,-20.2 243.5,-40.5 152.1,-20.2 314.1,-71.1 496.8,-71.1l60.8 -20.2c273.6,0 466.2,-60.8 739.8,-50.9 395.2,0 172.4,-50.9 760.2,-10.4 121.5,10.4 263.7,0 385.2,10.4l730 81c121.5,20.3 243.5,60.8 354.6,71.1 141.7,-598.1 81,-770.5 638.6,-1328.1 141.8,-141.7 293.9,-233.1 354.6,-324.5 -121.5,-233.1 -334.3,-577.8 -517.1,-770.4l-436.1 -425.8c-152.1,-162 -557.6,-466.2 -669.2,-638.6 -50.9,20.2 -233.1,71.1 -314.1,81l1.4 0.5z"/>
   <path class="fil2" d="M33275.1 12348.2l-20.3 30.6c-111.6,20.3 -273.6,111.7 -385.2,162 -750.2,324.5 -1226.4,598.1 -2118.8,699.4 -374.9,40.5 -750.3,-40.5 -1095,-20.3l-71.1 -30.6 -1084.6 -101.2c-1358.3,-121.5 -2240.4,-182.3 -1023.9,1307.8l730 750.3c71.1,50.8 101.2,91.3 162,141.7 1003.6,811 2544.6,1733.6 3821.8,963.1 374.9,-223.2 527,-415.4 780.4,-699.4l263.7 -334.3c50.9,-81 71.1,-111.6 121.5,-192.6 314.1,-527 567.5,-1033.8 739.9,-1642.3 50.8,-172.3 233.1,-810.9 111.6,-1023.8 -60.8,-121.5 -263.8,-162 -456.4,-141.8 -182.2,20.3 -314.1,91.4 -476.6,131.9l1 -0.5z"/>
   <path class="fil2" d="M32119.9 41187.5l10.3 10.4c0,0 -10.3,-10.4 -10.3,-10.4zm-4531.6 -11748.4c0,223.3 -71.1,496.9 -101.2,679.1 -131.9,679.1 -638.6,1429.4 -638.6,1774.1l-20.3 30.6c0,425.8 71.1,628.3 233.1,892 172.4,253.4 425.8,557.6 689.5,719.6 253.4,152.2 192.6,101.3 354.6,517.2l324.5 841.1 20.3 20.2c30.6,111.6 60.7,162 101.2,273.6l1348.4 3598.6c71.1,202.5 152.1,395.1 202.5,587.7l30.6 30.6c0,81 121.5,374.9 152.1,476.7 50.9,152.1 121.5,334.3 162,496.8 -162,-81 -1328.1,-162 -1611.6,-121.5 -273.6,40.5 -1033.7,20.3 -1287.6,253.4 -60.7,60.7 -60.7,81 -71.1,182.2 284,182.3 1185.9,131.9 1500.5,131.9 30.6,0 71.1,-10.4 101.2,0 50.9,10.4 40.5,10.4 60.8,20.3 253.3,0 425.7,20.2 649,60.7 101.2,10.4 223.2,30.6 324.4,40.5 111.7,20.3 192.7,50.9 304.3,60.8 40.5,0 30.6,-10.4 30.6,20.2 212.9,10.4 730,253.4 892,344.8 253.4,152.1 517.1,293.8 780.4,446 202.5,121.4 1409.1,810.9 1631.8,861.8 40.5,0 30.6,-10.4 30.6,30.6 101.3,30.6 182.3,71.1 284,81 385.3,30.6 284,-192.6 111.6,-354.6 -446,-415.4 -1490.1,-882.1 -1926.2,-1165.6l-71.1 -60.7c314.1,0 1682.7,587.7 2149,760.1 141.7,50.8 273.6,121.5 436.1,172.3 415.3,131.9 628.2,253.4 922.6,91.4 0,-233.1 -50.9,-253.4 -192.6,-354.6 -456.4,-334.4 -1490.1,-669.2 -2047.7,-831.2l-892 -243.5c0,0 -10.4,-10.4 -10.4,-10.4l760.1 81c284,40.5 1266.9,182.2 1490.1,30.6 223.2,-152.1 10.4,-344.7 -273.6,-436.1 -699.4,-233.1 -2433,-71.1 -3233.6,-71.1l-547.2 -1652.1c-40.5,-121.5 -182.3,-486.5 -192.6,-577.9l-20.3 -20.2c-10.4,-131.9 -304.2,-882.1 -374.9,-1104.9 -111.6,-324.5 -1094.9,-3152.5 -1094.9,-3355 374.8,-91.4 780.3,-425.8 932.4,-820.9 162,-405.5 162,-1033.7 162,-1601.7 -30.6,40.5 -10.3,0 -40.5,71.1l-111.6 273.6c-354.6,882.1 -50.8,1307.9 -993.2,1642.2 -496.9,172.4 -770.5,10.4 -1145.4,-293.8 -273.6,-233.2 -598.1,-577.9 -598.1,-983.4 10.4,-172.4 50.9,-293.9 101.3,-425.7 111.6,-324.5 354.6,-892 354.6,-1226.4 0,-121.5 0,-50.9 20.2,-81l0 -284c-10.3,-30.6 -10.3,-10.4 -20.2,-50.9 0,-10.3 0,-40.5 0,-50.8 0,-141.8 -10.4,-141.8 -40.5,-253.4 -10.4,-40.5 -10.4,-91.4 -30.6,-141.7 -30.6,-121.5 -10.4,-71.2 -40.5,-50.9 0,40.5 20.2,30.6 -20.3,30.6l0 -1z"/>
   <path class="fil2" d="M24436.3 6945.4l0 101.3c0,547.2 1621.9,1145.3 1946.4,1155.7 40.5,0 30.6,-10.4 30.6,30.6 121.5,0 182.3,30.7 284,50.9 111.7,10.4 182.3,20.3 314.2,20.3l60.7 30.6c152.1,0 192.6,-20.3 304.2,-30.6 0,-263.8 -30.6,-101.3 -334.3,-476.7 -212.9,-263.7 -466.3,-729.9 -537.4,-1084.6 -81,-354.6 -10.4,-506.7 -202.5,-638.6 -253.4,-182.2 -882.1,-385.2 -1287.6,-243.5 -293.9,111.7 -577.8,669.3 -577.8,1084.6l-0.5 0z"/>
   <path class="fil2" d="M28369.2 6996.3l50.9 30.6 374.8 0 50.9 -30.6c537.4,-10.4 942.9,-709.7 973,-1287.6 20.2,-385.2 -101.3,-567.5 -446,-689.5 -405.5,-131.8 -1023.9,-121.5 -1439.2,71.2 -162,71.1 -284,182.2 -415.4,293.8l-192.6 212.9c-334.4,415.4 -263.8,709.7 223.2,1064.3 162,111.7 577.9,334.4 820.9,334.4l-0.5 0.5z"/>
   <path class="fil2" d="M37471.7 18612.8c50.9,-30.6 50.9,-1033.7 0,-1084.6l0 1084.6z"/>
   <path class="fil2" d="M15313 29793.7c20.2,-30.6 20.2,10.4 30.6,-71.1 0,-30.6 -10.4,-101.2 -10.4,-131.9 -30.6,50.9 -10.4,-60.7 -20.2,71.2 -10.4,30.6 0,101.2 0,131.8z"/>
   <path class="fil2" d="M29139.7 40842.8c-20.3,-10.4 -10.4,-10.4 -60.8,-20.3 -30.6,-10.3 -71.1,0 -101.2,0 30.6,30.6 0,10.4 50.8,20.3 30.7,0 81,0 111.7,0l-0.5 0z"/>
   <path class="fil2" d="M22682.4 40710.9c0,-40.5 -60.7,-20.2 -111.6,-20.2 0,0 10.4,0 10.4,10.3 10.3,10.4 20.2,0 20.2,10.4 40.5,0 40.5,0 81,0l0 -0.5z"/>
   <path class="fil2" d="M24436.3 7046.7l0 -101.3c-30.7,20.3 -30.7,-50.8 -20.3,50.9 0,60.8 0,20.3 20.3,50.9l0 -0.5z"/>
   <path class="fil2" d="M38069.9 19302.3c20.2,-30.6 30.6,30.6 30.6,-101.2 -40.5,60.7 -20.3,10.3 -30.6,101.2z"/>
   <path class="fil2" d="M27720.2 30320.7c20.2,-30.6 20.2,40.5 20.2,-81 -20.2,30.7 -20.2,-40.5 -20.2,81z"/>
   <path class="fil2" d="M22135.2 40690.7c-111.6,0 -60.8,0 -81,20.2 111.6,0 60.7,0 81,-20.2z"/>
   <path class="fil2" d="M13002 37933.7c-91.4,0 -50.9,-10.4 -101.3,20.3 20.3,0 40.5,0 50.9,0 50.9,-10.4 20.3,0 50.9,-20.3l-0.5 0z"/>
   <path class="fil2" d="M27740.4 29955.7c0,-20.2 0,-40.5 0,-50.8 -10.3,-50.9 -10.3,-30.7 -20.2,-50.9 0,10.4 0,40.5 0,50.9 10.4,40.5 10.4,20.2 20.2,50.8z"/>
   <path class="fil2" d="M27375.5 41877c-30.7,-40.5 50.8,-30.6 -60.8,-30.6 30.6,30.6 0,10.4 60.8,30.6z"/>
   <path class="fil2" d="M26068.1 41278.9c0,-50.9 10.4,-40.5 -30.6,-40.5 0,50.9 -10.4,40.5 30.6,40.5z"/>
   <path class="fil2" d="M27609.1 29408.5c-40.5,0 -20.3,-10.4 -20.3,30.6 40.5,0 20.3,10.4 20.3,-30.6z"/>
   <path class="fil2" d="M25987.1 32145.7c0,-50.9 10.4,-40.5 -30.6,-40.5 0,50.9 -10.4,40.5 30.6,40.5z"/>
   <path class="fil2" d="M25885.4 31121.8c0,-50.8 10.3,-40.5 -30.7,-40.5 0,50.9 -10.3,40.5 30.7,40.5z"/>
   <path class="fil2" d="M22581.2 4350.5c-40.5,0 -30.6,-10.4 -30.6,30.6 40.5,0 30.6,10.4 30.6,-30.6z"/>
   <path class="fil2" d="M28277.8 42048.9c0,-40.5 10.4,-20.3 -40.5,-20.3 0,40.5 0,20.3 40.5,20.3z"/>
   <path class="fil2" d="M37208.5 21583.1c-40.5,0 -20.2,-10.3 -20.2,40.5 40.5,0 20.2,10.4 20.2,-40.5z"/>
   <path class="fil2" d="M24385.4 10442.7c0,-40.5 10.4,-40.5 -30.6,-40.5 0,50.9 -10.4,40.5 30.6,40.5z"/>
   <path class="fil2" d="M26412.8 8233c0,-40.5 10.4,-30.6 -30.6,-30.6 0,40.5 -10.3,30.6 30.6,30.6z"/>
   <path class="fil2" d="M33782.3 42708.2c0,-40.5 10.4,-30.6 -30.6,-30.6 0,40.5 -10.4,30.6 30.6,30.6z"/>
   <path class="fil2" d="M30426.8 143.9c-40.5,0 -30.7,-10.3 -30.7,30.7 40.5,0 30.7,10.3 30.7,-30.7z"/>
   <path class="fil2" d="M25409.2 38491.3c0,-40.5 10.4,-30.6 -30.6,-30.6 0,40.5 -10.3,30.6 30.6,30.6z"/>
   <path class="fil2" d="M17188.3 32764.1c-50.9,0 -40.5,-10.4 -40.5,30.6 40.5,0 40.5,10.3 40.5,-30.6z"/>
   <path class="fil2" d="M37451.5 23275.7c-40.5,0 -30.6,0 -30.6,40.5 40.5,0 30.6,10.4 30.6,-40.5z"/>
   <path class="fil2" d="M9626.2 37487.7c0,-40.5 10.4,-30.6 -30.6,-30.6 0,40.5 -10.4,30.6 30.6,30.6z"/>
   <path class="fil2" d="M19245.9 9044c-40.5,0 -40.5,-10.4 -40.5,20.3 50.8,0 40.5,20.2 40.5,-20.3z"/>
   <path class="fil2" d="M15394 23549.4c-40.5,0 -30.7,0 -30.7,40.5 40.5,0 30.7,10.3 30.7,-40.5z"/>
   <path class="fil2" d="M29321.9 934.2c-50.9,0 -40.5,-10.4 -40.5,30.6 40.5,0 40.5,10.4 40.5,-30.6z"/>
   <path class="fil2" d="M30153.1 30848.2c-40.5,0 -30.6,-10.4 -30.6,30.6 40.5,0 30.6,10.4 30.6,-30.6z"/>
   <path class="fil2" d="M25885.4 29236.1c-40.5,0 -30.7,-10.3 -30.7,40.5 40.5,0 30.7,0 30.7,-40.5z"/>
   <path class="fil2" d="M21668.5 5739.3c-40.5,0 -40.5,-10.3 -40.5,20.3 50.8,0 40.5,10.4 40.5,-20.3z"/>
   <path class="fil2" d="M36792.6 8871.6c0,-50.8 10.4,-40.5 -30.6,-40.5 0,40.5 -10.4,40.5 30.6,40.5z"/>
   <path class="fil2" d="M37390.7 15764.5c0,-50.9 20.3,-40.5 -20.2,-40.5 0,40.5 -10.4,40.5 20.2,40.5z"/>
   <path class="fil2" d="M22317.4 5556.6c-40.5,0 -30.6,-20.3 -30.6,20.2 40.5,0 30.6,10.4 30.6,-20.2z"/>
   <path class="fil2" d="M25885.4 40457.5c0,-40.5 10.3,-30.6 -30.7,-30.6 0,40.5 -10.3,30.6 30.7,30.6z"/>
   <path class="fil2" d="M25226.5 37751c0,-40.5 10.4,-30.7 -30.6,-30.7 0,40.5 -10.4,30.7 30.6,30.7z"/>
   <path class="fil2" d="M29656.3 13219.9c-30.6,-40.5 60.7,-30.6 -71.1,-30.6l71.1 30.6z"/>
   <path class="fil2" d="M31186.9 42.2l0 0 -30.6 0c-10.4,0 0,10.4 0,30.6 40.5,0 30.6,10.4 30.6,-30.6z"/>
   <path class="fil2" d="M25095.1 40629.9c0,-40.5 10.4,-30.6 -30.6,-30.6 0,40.5 -10.4,30.6 30.6,30.6z"/>
   <path class="fil2" d="M21111.3 31263.6c-40.5,0 -30.6,-10.4 -30.6,30.6 40.5,0 30.6,10.4 30.6,-30.6z"/>
   <path class="fil2" d="M31916.9 30188.9c-40.5,0 -30.7,-10.4 -30.7,30.6 40.5,0 30.7,10.4 30.7,-30.6z"/>
   <path class="fil2" d="M32778.7 1704.7c0,-40.5 10.4,-40.5 -30.6,-40.5 0,40.5 -10.4,40.5 30.6,40.5z"/>
   <path class="fil2" d="M30447 41025.5c0,-30.6 10.4,-20.2 -30.6,-20.2 0,30.6 -10.4,20.2 30.6,20.2z"/>
   <path class="fil2" d="M37289.5 20964.8l30.6 -60.8c-40.5,20.3 -30.6,-40.5 -30.6,60.8z"/>
   <path class="fil2" d="M28794.9 41552.5c-20.2,-30.6 40.5,-30.6 -60.7,-30.6l60.7 30.6z"/>
   <path class="fil2" d="M27071.7 8334.3l-60.7 -30.6c20.2,40.5 -40.5,30.6 60.7,30.6z"/>
   <path class="fil2" d="M15181.1 24613.7l20.2 -60.7c-30.6,20.2 -20.2,-40.5 -20.2,60.7z"/>
   <path class="fil2" d="M20290 8861.3l-60.8 20.2c101.3,0 40.5,10.4 60.8,-20.2z"/>
   <path class="fil2" d="M37370.5 20295.6l30.6 -50.9c-40.5,20.2 -30.6,-30.6 -30.6,50.9z"/>
   <path class="fil2" d="M15414.2 28303.6c40.5,-20.2 30.6,30.7 30.6,-50.8l-30.6 50.8z"/>
   <path class="fil2" d="M37917.7 13949.9c0,-91.3 10.4,-30.6 -30.6,-50.8l30.6 50.8z"/>
   <path class="fil2" d="M28419.6 7026.4l-50.9 -30.6c20.2,30.6 -30.6,30.6 50.9,30.6z"/>
   <path class="fil2" d="M23392.2 8831.1l0 -20.7 -30.7 20.7 30.7 0z"/>
   <path class="fil2" d="M22520.4 31162.3l-20.7 30.2 20.7 -30.2z"/>
   <path class="fil2" d="M15444.8 31922.4l-30.6 -30.6 30.6 30.6z"/>
   <path class="fil2" d="M26848.5 31891.8l-20.3 30.6 20.3 -30.6z"/>
   <path class="fil2" d="M21628 31973.3l-20.3 30.1 20.3 -30.1z"/>
   <path class="fil2" d="M25956.5 32449.4l30.6 -60.7 -30.6 60.7z"/>
   <path class="fil2" d="M15809.8 32581.3l-30.6 -30.1 30.6 30.1z"/>
   <path class="fil2" d="M33275.1 12348.2l-20.3 30.6 20.3 -30.6z"/>
   <path class="fil2" d="M24882.3 33493.5l-20.3 30.7 20.3 -30.7z"/>
   <path class="fil2" d="M23493.4 33625.4l-20.2 -20.2 20.2 20.2z"/>
   <path class="fil2" d="M24304.4 33686.2l-20.3 20.2 20.3 -20.2z"/>
   <path class="fil2" d="M28450.2 34913l-20.3 -20.2 20.3 20.2z"/>
   <path class="fil2" d="M37634.2 12145.7l-30.6 -60.7 30.6 60.7z"/>
   <path class="fil2" d="M24567.6 11040.9l-20.2 -30.7 20.2 30.7z"/>
   <path class="fil2" d="M30204 751.9l-20.2 20.3 20.2 -20.3z"/>
   <path class="fil2" d="M37258.9 10483.2l-20.3 -20.2 20.3 20.2z"/>
   <path class="fil2" d="M25328.2 38166.8l-20.2 -20.2 20.2 20.2z"/>
   <path class="fil2" d="M30548.3 38166.8l-20.3 -20.2 20.3 20.2z"/>
   <path class="fil2" d="M27669.8 802.8l-30.6 30.1 30.6 -30.1z"/>
   <path class="fil2" d="M24618.5 38642.9l-20.2 -30.1 20.2 30.1z"/>
   <path class="fil2" d="M30132.9 39403.5l-30.6 -30.6 30.6 30.6z"/>
   <path class="fil2" d="M26352.1 1167.3l-20.3 30.6 20.3 -30.6z"/>
   <path class="fil2" d="M25277.4 1958l-30.6 30.7 30.6 -30.7z"/>
   <path class="fil2" d="M22520.4 4978.7l-20.7 20.3 20.7 -20.3z"/>
   <path class="fil2" d="M22581.2 29378.4l-30.6 -61.3 30.6 61.3z"/>
   <path class="fil2" d="M37897.5 21055.7l20.2 -50.4 -20.2 50.4z"/>
   <path class="fil2" d="M23888.5 40893.6l-50.3 -20.2 50.3 20.2z"/>
   <path class="fil2" d="M28794.9 518.8l-30.6 20.3 30.6 -20.3z"/>
   <path class="fil2" d="M30781.9 30665.5l-30.6 20.2 30.6 -20.2z"/>
   <path class="fil2" d="M17228.8 7787l-30.6 20.3 30.6 -20.3z"/>
   <path class="fil2" d="M23736.4 41501.6l-30.1 -30.1 30.1 30.1z"/>
   <path class="fil2" d="M37208.5 14162.8l-20.2 -30.1 20.2 30.1z"/>
   <path class="fil2" d="M28845.3 6996.3l-50.4 30.1 50.4 -30.1z"/>
   <path class="fil2" d="M23027.2 13605.2l-30.7 30.6 30.7 -30.6z"/>
   <path class="fil2" d="M28794.9 42160.5l-30.6 -30.1 30.6 30.1z"/>
   <path class="fil2" d="M19661.7 6468.8l-20.2 30.6 20.2 -30.6z"/>
   <path class="fil2" d="M20290 6205.6l-20.3 30.1 20.3 -30.1z"/>
  </g>
 </g>
</svg>
