<?xml version="1.0" encoding="UTF-8"?>
<!DOCTYPE svg PUBLIC "-//W3C//DTD SVG 1.0//EN" "http://www.w3.org/TR/2001/REC-SVG-20010904/DTD/svg10.dtd">
<!-- Creator: CorelDRAW 2021 (64-Bit) -->
<svg xmlns="http://www.w3.org/2000/svg" xml:space="preserve" width="4.26667in" height="4.26667in" version="1.0" style="shape-rendering:geometricPrecision; text-rendering:geometricPrecision; image-rendering:optimizeQuality; fill-rule:evenodd; clip-rule:evenodd"
viewBox="0 0 4266.66 4266.66"
 xmlns:xlink="http://www.w3.org/1999/xlink"
 xmlns:xodm="http://www.corel.com/coreldraw/odm/2003">
 <defs>
  <style type="text/css">
   <![CDATA[
    .fil7 {fill:black}
    .fil6 {fill:#FFAF74}
    .fil1 {fill:#FFAF74}
    .fil5 {fill:white}
    .fil0 {fill:white}
    .fil4 {fill:black;fill-rule:nonzero}
    .fil3 {fill:black;fill-rule:nonzero}
    .fil2 {fill:#FFAF74;fill-rule:nonzero}
   ]]>
  </style>
 </defs>
 <g id="Layer_x0020_1">
  <metadata id="CorelCorpID_0Corel-Layer"/>
  <rect class="fil0" x="-0" y="-0" width="4266.66" height="4266.66"/>
  <path class="fil1" d="M2139.24 526.21c886.84,0 1605.77,718.93 1605.77,1605.78 0,886.84 -718.93,1605.77 -1605.77,1605.77 -886.84,0 -1605.78,-718.93 -1605.78,-1605.77 0,-886.85 718.94,-1605.78 1605.78,-1605.78z"/>
  <path class="fil2" d="M274 2249.62c0.8,10.5 -1.06,21.05 -5.69,31.61 -4.57,10.56 -11.63,19.04 -21.18,25.49 -9.54,6.4 -19.69,10.04 -30.44,10.86 -17.2,1.31 -32.38,-3.75 -45.46,-15.18 -13.09,-11.43 -20.3,-25.88 -21.63,-43.29 -1.34,-17.56 3.59,-32.98 14.8,-46.27 11.2,-13.24 25.44,-20.54 42.64,-21.85 10.84,-0.83 21.41,1.18 31.78,6.06 10.36,4.93 18.63,12.24 24.75,21.99 6.17,9.74 9.62,19.94 10.43,30.58zm36.49 270.18c2.37,10.26 2.11,20.97 -0.88,32.11 -2.93,11.13 -8.64,20.57 -17.11,28.39 -8.48,7.76 -17.96,12.88 -28.46,15.3 -16.81,3.88 -32.57,1.16 -47.22,-8.19 -14.66,-9.33 -23.96,-22.54 -27.88,-39.55 -3.96,-17.16 -1.4,-33.15 7.68,-47.96 9.09,-14.77 22.06,-24.12 38.87,-28 10.6,-2.45 21.35,-2.06 32.33,1.22 10.98,3.32 20.26,9.31 27.77,18.02 7.57,8.7 12.5,18.27 14.91,28.67zm187.49 510.29c5.33,9.07 8.3,19.37 8.79,30.89 0.53,11.5 -2.08,22.22 -7.81,32.21 -5.76,9.94 -13.28,17.67 -22.57,23.13 -14.88,8.74 -30.73,10.87 -47.51,6.35 -16.78,-4.51 -29.61,-14.32 -38.45,-29.38 -8.93,-15.18 -11.27,-31.2 -7.05,-48.06 4.24,-16.81 13.82,-29.63 28.69,-38.37 9.38,-5.51 19.75,-8.36 31.2,-8.53 11.48,-0.13 22.11,2.81 31.9,8.87 9.82,6.04 17.4,13.68 22.81,22.88zm150.39 229.92c6.52,8.26 10.86,18.06 12.91,29.41 2.09,11.31 0.96,22.29 -3.36,32.97 -4.35,10.64 -10.74,19.31 -19.2,25.99 -13.55,10.69 -28.96,14.95 -46.2,12.76 -17.24,-2.19 -31.28,-10.16 -42.09,-23.87 -10.91,-13.83 -15.42,-29.37 -13.53,-46.65 1.91,-17.24 9.65,-31.23 23.2,-41.92 8.54,-6.74 18.43,-10.97 29.76,-12.7 11.35,-1.69 22.29,-0.23 32.8,4.44 10.56,4.64 19.11,11.18 25.72,19.56zm2987.89 -8.15c6.12,-8.56 14.32,-15.46 24.65,-20.6 10.28,-5.17 21.14,-7.14 32.6,-5.96 11.43,1.21 21.54,4.94 30.31,11.2 14.04,10.03 22.43,23.65 25.13,40.81 2.7,17.17 -1.04,32.87 -11.19,47.08 -10.24,14.33 -23.91,22.99 -41.03,26 -17.09,2.96 -32.69,-0.57 -46.72,-10.6 -8.85,-6.32 -15.67,-14.64 -20.48,-25.04 -4.78,-10.43 -6.43,-21.35 -4.87,-32.75 1.52,-11.43 5.41,-21.46 11.62,-30.15zm147.95 -228.17c4.71,-9.41 11.74,-17.5 21.13,-24.19 9.35,-6.7 19.77,-10.35 31.27,-10.97 11.48,-0.58 22.06,1.52 31.69,6.35 15.43,7.72 25.84,19.87 31.18,36.4 5.35,16.53 4.1,32.63 -3.72,48.25 -7.88,15.74 -20.04,26.43 -36.48,32.07 -16.41,5.59 -32.37,4.53 -47.8,-3.19 -9.72,-4.87 -17.76,-12.02 -24.14,-21.54 -6.35,-9.56 -9.68,-20.08 -9.92,-31.59 -0.28,-11.53 2.01,-22.04 6.78,-31.59zm186.31 -514.85c1.96,-10.34 6.5,-20.05 13.72,-29.04 7.16,-9 16.19,-15.36 27.08,-19.1 10.88,-3.7 21.63,-4.57 32.21,-2.56 16.96,3.21 30.29,12.04 39.95,26.49 9.66,14.44 12.86,30.27 9.61,47.43 -3.27,17.3 -12.05,30.91 -26.32,40.82 -14.26,9.87 -29.9,13.21 -46.86,10 -10.69,-2.02 -20.37,-6.7 -29.1,-14.12 -8.72,-7.46 -14.8,-16.67 -18.17,-27.67 -3.43,-11.01 -4.1,-21.75 -2.11,-32.24zm35.25 -276.16c0.8,-10.49 4.25,-20.64 10.42,-30.38 6.12,-9.74 14.38,-17.06 24.8,-21.98 10.41,-4.88 20.99,-6.94 31.73,-6.12 17.2,1.31 31.44,8.61 42.63,21.9 11.2,13.28 16.14,28.66 14.81,46.07 -1.34,17.56 -8.56,32.05 -21.64,43.48 -13.08,11.39 -28.25,16.44 -45.46,15.13 -10.85,-0.83 -20.99,-4.41 -30.5,-10.81 -9.49,-6.44 -16.55,-14.93 -21.13,-25.49 -4.63,-10.56 -6.48,-21.17 -5.67,-31.81z"/>
  <path id="_1" class="fil3" d="M385.79 2781.59c3.9,9.78 5.28,20.41 4.02,31.87 -1.2,11.44 -5.41,21.65 -12.59,30.66 -7.19,8.96 -15.79,15.46 -25.8,19.45 -16.03,6.39 -32.02,6.1 -47.93,-0.9 -15.91,-7 -27.1,-18.63 -33.57,-34.85 -6.53,-16.35 -6.43,-32.54 0.29,-48.57 6.74,-15.98 18.14,-27.2 34.17,-33.59 10.1,-4.03 20.79,-5.28 32.14,-3.71 11.36,1.61 21.43,6.12 30.19,13.59 8.8,7.45 15.14,16.15 19.09,26.06zm3511.24 -9.73c3.46,-9.94 9.39,-18.87 17.85,-26.7 8.41,-7.85 18.28,-12.8 29.6,-14.9 11.31,-2.05 22.06,-1.33 32.24,2.22 16.3,5.68 28.18,16.38 35.6,32.09 7.43,15.71 8.26,31.84 2.51,48.33 -5.79,16.63 -16.48,28.79 -32.06,36.49 -15.56,7.65 -31.52,8.65 -47.81,2.98 -10.27,-3.58 -19.16,-9.64 -26.7,-18.26 -7.53,-8.67 -12.18,-18.67 -13.89,-30.05 -1.76,-11.39 -0.84,-22.12 2.67,-32.2z"/>
  <path id="_2" class="fil4" d="M902.49 3725.66l-40.93 -35.64c3.29,-3.78 7.54,-22.89 12.81,-57.42 5.58,-36.77 5.25,-57.87 -0.99,-63.31l-3.76 -3.27c-16.27,18.68 -37.44,43.95 -63.52,75.71l-35.3 -30.73c22.64,-23.84 47.5,-51.28 74.55,-82.35 25.99,-29.85 47.63,-55.82 64.91,-77.83l35.3 30.73c-20.71,21.97 -39.71,42.85 -57.08,62.79l2.73 2.38c3.68,3.2 21.72,1.19 54.17,-6.06 31.51,-7.03 48.5,-11.95 51.02,-14.85l37.3 32.48c-2.37,2.73 -18.91,6.27 -49.63,10.67 -31.71,4.57 -53.32,6.2 -64.94,4.87l-1.61 1.85c4.7,11.77 4.05,39.61 -2.13,83.55 -5.65,40.92 -9.98,63.06 -12.91,66.41zm193.59 90.04l-22.35 29.32 -120.58 -86.17 21.48 -25.77c18.87,-5.74 48.56,-16.49 88.92,-32.25 43.76,-17.1 67.07,-27.61 69.92,-31.59l1.52 -2.13c-21.52,-15.38 -47.13,-32.17 -76.89,-50.36l21.61 -28.48 115.6 82.61 -21.54 26.14c-19.52,6.37 -48.25,17.24 -86.19,32.63 -42.89,17.44 -65.87,28.26 -68.82,32.38l-1.42 1.99c18.9,13.5 45.15,30.76 78.73,51.68zm106.34 68.97c-3.99,6.89 -9.93,11.48 -17.78,13.94 -7.87,2.39 -16.04,1.13 -24.57,-3.81 -7.15,-4.15 -11.48,-9.68 -12.9,-16.49 -1.39,-6.85 -0.28,-13.41 3.38,-19.72 3.99,-6.89 9.88,-11.39 17.61,-13.66 7.76,-2.19 15.95,-0.85 24.57,4.15 7.26,4.2 11.61,9.69 12.99,16.34 1.41,6.61 0.3,13.04 -3.31,19.26zm239.13 70.76c-17.57,39.52 -59.24,44.7 -125.09,15.43 -11.44,-5.09 -29.07,-13.29 -52.97,-24.65 14.64,-29.44 30.35,-62.96 47.09,-100.61 16.08,-36.17 29.13,-67.34 39.19,-93.45l24.59 10.93c4.61,2.05 12.47,5.42 23.58,10 11.11,4.57 19.77,8.24 25.93,10.98 44.78,19.91 60.84,44.17 48.11,72.81 -9.79,22.03 -27.78,31.52 -53.9,28.49l-1 2.24c11.38,7.31 19.96,16.73 25.73,28.31 5.73,11.51 5.31,24.72 -1.26,39.53zm-41.67 -16.58c8.8,-19.78 -4.42,-37.48 -39.72,-53.18 -6.99,-3.11 -13.11,-5.52 -18.38,-7.32 -9.25,20.81 -17.29,40.14 -24.11,58 3.06,2.33 8.06,5.04 14.89,8.08 18.74,8.33 33.4,12.17 44.06,11.61 10.66,-0.56 18.4,-6.26 23.27,-17.19zm26.03 -88.4c7.89,-17.75 0.57,-31.67 -22.11,-41.75 -10.41,-4.63 -19.99,-8.04 -28.74,-10.1 -3.31,10.53 -10.46,28 -21.32,52.42 3.8,1.93 7.78,3.83 12.03,5.71 31.94,14.2 51.98,12.08 60.14,-6.28zm112.13 205.43l-44.35 -15.45c12.44,-31.39 25.31,-66.11 38.57,-104.17 13.06,-37.48 23.48,-69.63 31.3,-96.38l44.35 15.45c-10.37,25.45 -22.16,57.06 -35.36,94.97 -13.48,38.69 -24.97,73.89 -34.51,105.58zm260.7 63.95l-47.82 -11.22c-3.74,-40.39 -7.9,-65.78 -12.52,-76.13 -4.61,-10.35 -14.34,-17.26 -29.23,-20.75 -6.23,-1.46 -12.2,-2.81 -17.95,-4.1 -6.39,27.21 -12.33,54.8 -17.91,82.77l-44.9 -10.53c8.88,-31.65 18.06,-67.52 27.46,-107.63 9.04,-38.54 16.05,-71.6 21.05,-99.13l27.97 6.56c3.2,0.75 10.01,2.23 20.34,4.31 10.39,2.09 19.92,4.16 28.69,6.22 49.42,11.59 70.22,34.03 62.43,67.25 -6.18,26.34 -24.61,41.4 -55.22,45.14l-0.56 2.39c10.17,5.53 17.75,16.11 22.7,31.74 5,15.64 10.15,43.32 15.48,83.11zm-26.35 -160.28c4.94,-21.08 -6.38,-34.83 -33.95,-41.3 -10.09,-2.37 -19.25,-3.78 -27.33,-4.07 -2.69,16.64 -7.09,38.19 -13.28,64.53 5.85,1.6 10.84,2.89 14.93,3.85 34.31,8.05 54.15,0.35 59.63,-23.01zm289.78 71.49c-2.35,30.8 -14.45,56.9 -36.31,78.35 -21.81,21.45 -50.81,30.8 -87.02,28.04 -16.32,-1.24 -38.76,-3.63 -67.35,-7.09 3.91,-32.65 7.45,-69.5 10.59,-110.57 3.01,-39.46 4.85,-73.21 5.56,-101.18l28.98 2.21c4.74,0.36 11.81,0.79 21.21,1.17 9.41,0.39 15.52,0.68 18.4,0.9 39.83,3.04 67.95,15.01 84.37,35.86 16.47,20.91 23.67,45.02 21.59,72.33zm-45.72 3.54c1.59,-20.81 -3.29,-38.83 -14.52,-54.03 -11.28,-15.21 -29.6,-23.75 -54.97,-25.69 -4.74,-0.36 -11.33,-0.37 -19.66,-0.05 -0.58,21.78 -1.74,44.47 -3.54,68.12 -1.98,25.92 -3.37,51.67 -4.19,77.23 7.06,1.94 14.13,3.2 21.3,3.75 23.72,1.81 41.85,-4.13 54.41,-17.68 12.52,-13.62 19.57,-30.83 21.16,-51.65zm258.31 49.19c1.54,42.5 -28.78,64.82 -90.89,67.07 -21.11,0.76 -40.85,-0.97 -59.15,-5.32l6.78 -36.68c18.17,5.47 35.15,7.87 51.11,7.29 17.67,-0.64 30.34,-2.77 37.93,-6.38 7.63,-3.68 11.33,-9.49 11.05,-17.39 -0.3,-8.29 -4.23,-15.11 -11.74,-20.46 -6.47,-4.78 -19.5,-10.83 -39.04,-18.2 -17.7,-6.71 -31.02,-14.31 -39.82,-22.68 -11.09,-10.57 -16.97,-23.95 -17.55,-40.03 -0.68,-18.69 5.82,-33.52 19.54,-44.6 13.72,-11.03 33.8,-17.04 60.23,-18 21.69,-0.79 39.92,0.33 54.77,3.42l-4.86 36.38c-15.09,-4.8 -31.32,-6.83 -48.69,-6.2 -26.11,0.94 -38.88,8.26 -38.38,21.94 0.26,7.29 3.48,13.08 9.75,17.42 5.47,3.7 17.21,8.79 35.25,15.21 19.19,6.83 33.63,14.55 43.36,23.22 12.95,11.62 19.72,26.3 20.36,44zm127.99 15.95c0.92,7.91 -1.09,15.15 -5.9,21.81 -4.87,6.63 -12.17,10.5 -21.96,11.65 -8.21,0.96 -14.99,-0.89 -20.2,-5.49 -5.22,-4.66 -8.26,-10.58 -9.1,-17.83 -0.93,-7.91 1.09,-15.04 5.93,-21.49 4.9,-6.4 12.26,-10.23 22.17,-11.38 8.32,-0.98 15.09,0.81 20.19,5.32 5.08,4.45 8.04,10.27 8.88,17.4zm317.33 -253.57c2.28,9.87 -0.41,47.34 -8.13,112.37 -7.71,65.08 -10.64,101.52 -8.8,109.5l-42.67 9.85c-1.93,-8.35 -13.94,-30.43 -35.92,-66.21 -23.48,-38.29 -37.65,-63.87 -42.42,-76.71l-2.76 0.64c1.37,13.74 0.51,43.02 -2.53,87.76 -2.84,41.85 -3.36,66.54 -1.6,74.18l-43.67 10.08c-2.3,-9.98 -21.13,-42.94 -56.44,-98.95 -35.26,-56.02 -53.65,-87.09 -55.08,-93.26l51.28 -11.84c1.55,6.72 13.81,31.89 36.85,75.53 23.05,43.7 35.54,69.84 37.56,78.57l2.59 -0.6c-2.02,-8.74 -1.69,-37.32 0.94,-85.86 2.64,-48.54 3.02,-77.14 1,-85.87l46.09 -10.64c1.84,7.97 14.77,34.01 38.8,78.17 24.04,44.21 36.75,69.27 38.15,75.35l2.59 -0.6c-1.77,-7.65 -1.79,-34.96 -0.06,-81.86 1.73,-46.9 1.16,-76.59 -1.71,-89.01l45.93 -10.6zm282.06 109.38l-49.3 19.67c-2.66,-6.67 -14.88,-23.67 -36.66,-51.06l-71.2 28.4c2.53,34.47 5.22,55.28 8.09,62.46l-46.41 18.52c-1.57,-3.93 -2.46,-41.04 -2.69,-111.31 -0.22,-70.28 -1.55,-108.47 -4.02,-114.67l58.31 -23.26c2.31,5.79 26.29,34.4 72.01,85.87 45.77,51.44 69.69,79.9 71.88,85.38zm-105.33 -57.17c-38.37,-45.11 -58.4,-69.79 -60.09,-74.02l-2.48 0.99c1.57,3.93 3.7,35.74 6.42,95.43l56.15 -22.4zm185.26 -230.53l16.74 30.84c-19.87,9.8 -38.27,19.64 -55.16,29.57 10.24,17.87 21.73,37.66 34.51,59.4 19.83,33.74 39.12,65.34 57.83,94.83l-40.05 23.54c-16.3,-30.52 -34.42,-62.81 -54.41,-96.84 -12.55,-21.36 -24.36,-41.02 -35.39,-58.89 -13.43,7.9 -31.45,19.52 -54.02,34.78l-16.73 -31.04 146.68 -86.19zm272.63 22.71l19.71 31.98c-10.58,12.25 -22.03,22.81 -34.42,31.78 -30.76,22.25 -60.2,30.84 -88.39,25.81 -28.13,-5.06 -50.85,-19.55 -68.11,-43.41 -17.91,-24.76 -24.98,-52.5 -21.15,-83.17 3.83,-30.66 20.61,-56.76 50.41,-78.31 10.92,-7.91 22.13,-14.16 33.7,-18.75l17.41 33.92c-13.04,4.29 -24.35,9.93 -34.04,16.94 -18.22,13.18 -27.65,28.66 -28.32,46.39 -0.71,17.76 4.83,34.71 16.54,50.9 11.98,16.56 27.67,27.12 46.95,31.65 19.37,4.54 38.51,-0.03 57.51,-13.78 11.15,-8.07 21.85,-18.7 32.19,-31.95zm211.48 -137.06l-34.22 32.17c-23.89,-26.98 -44.83,-50.08 -62.94,-69.34l-60.92 57.28c16.24,17.28 38.01,39.68 65.33,67.09l-34.22 32.17c-23.56,-27.13 -48.38,-54.6 -74.51,-82.39 -26.43,-28.11 -50.11,-52.22 -70.97,-72.34l34.22 -32.17c19.98,23.15 38.86,44.22 56.67,63.17l61.42 -57.74c-15.71,-16.71 -35.58,-36.85 -59.56,-60.45l34.22 -32.17c17.83,21.2 40.37,46.33 67.71,75.41 28.52,30.34 54.46,56.76 77.77,79.32z"/>
  <path class="fil4" d="M358.64 1784.79l-3.84 31.63c-1.21,-0.15 -11.2,4.25 -30.13,13.07 -21.9,10.26 -40.13,19.81 -54.64,28.72 -19.71,12.08 -29.98,21.55 -30.81,28.41l-0.54 4.49c25.2,3.06 60.45,6.83 105.68,11.32l-3.3 27.19c-33.25,-5.48 -69.95,-10.69 -110.26,-15.58 -37.89,-4.6 -71.29,-7.9 -100.14,-9.95l3.3 -27.19c28.56,4.47 57.56,8.49 87.12,12.08l0.41 -3.35c0.64,-5.28 -11.49,-20.17 -36.44,-44.68 -24.9,-24.5 -38.95,-36.93 -42.2,-37.32l3.65 -30.05c3.25,0.39 15.35,12.28 36.3,35.7 20.89,23.42 34.81,40.63 41.7,51.63l1.6 0.19c6.09,-10.48 29.67,-26.34 70.86,-47.58 37.91,-19.54 58.43,-29.11 61.69,-28.72zm38.01 -147.42l-4.22 22.5c-5.45,-0.1 -10.51,-0.67 -15.16,-1.75l-0.33 1.41c9.13,14.43 11.34,31.63 6.67,51.67 -2.54,10.89 -8.28,19.41 -17.25,25.58 -8.91,6.19 -20,7.74 -33.26,4.65 -16.23,-3.78 -27.89,-12.98 -34.93,-27.58 -6.98,-14.59 -6.87,-38.6 0.37,-72.13 -2.48,-0.89 -5.36,-1.71 -8.61,-2.46 -13.04,-3.04 -22.42,-1.96 -28.19,3.23 -5.77,5.19 -10.12,14.08 -13.06,26.67 -3.46,14.86 -4.8,29.91 -4.04,45.25l-21.3 -7.51c-1.24,-15.24 0.29,-32.09 4.58,-50.48 3.92,-16.85 10.85,-28.96 20.72,-36.31 9.93,-7.33 24.25,-8.85 42.92,-4.5 4.98,1.16 13.97,3.46 26.91,6.93 12.94,3.47 21.61,5.69 25.94,6.7 19.2,4.48 36.65,7.21 52.24,8.14zm-36.59 17.96c-16.17,-3.31 -30.67,-6.43 -43.44,-9.4 -4.14,17.76 -5.83,31.66 -5.01,41.6 1.69,16.72 9.94,26.86 24.82,30.33 14.39,3.35 23.71,-4.07 27.94,-22.22 3.63,-15.59 2.2,-29.04 -4.3,-40.31zm62.2 -177.57l24.52 9.33 -34.53 100.41 -23.46 -9.33c-3.59,-6.65 -15.49,-24.67 -35.83,-54 -22.15,-31.96 -35.05,-48.59 -38.62,-49.81l-1.73 -0.44c-10.13,29.48 -17.54,53.05 -22.11,70.77l-23.89 -9.11 32.87 -95.56 23.69 9.67c6.68,10.81 18.87,28.51 36.46,53.02 21.97,30.58 34.98,46.57 38.97,47.94l1.21 0.42c9.54,-27.74 17.06,-52.17 22.44,-73.29zm90.23 -140.86l-8.44 21.28c-5.34,-1.14 -10.19,-2.67 -14.55,-4.61l-0.59 1.31c6.21,15.91 5.09,33.22 -3.32,52 -4.57,10.21 -11.84,17.46 -21.82,21.81 -9.93,4.37 -21.11,3.78 -33.54,-1.79 -15.21,-6.81 -24.9,-18.07 -29.02,-33.74 -4.07,-15.65 0.63,-39.2 14.15,-70.73 -2.26,-1.34 -4.93,-2.7 -7.98,-4.06 -12.22,-5.47 -21.64,-6.2 -28.3,-2.22 -6.65,3.99 -12.62,11.89 -17.91,23.68 -6.24,13.93 -10.43,28.44 -12.61,43.64l-19.46 -11.44c1.69,-15.2 6.41,-31.44 14.13,-48.68 7.07,-15.78 16.19,-26.35 27.28,-31.68 11.15,-5.3 25.5,-4.05 42.99,3.78 4.67,2.09 13.05,6.06 25.09,11.94 12.04,5.88 20.12,9.72 24.18,11.54 18,8.06 34.6,14.08 49.72,17.97zm-39.35 10.65c-15.24,-6.34 -28.88,-12.17 -40.85,-17.53 -7.46,16.65 -11.78,29.96 -12.87,39.88 -1.53,16.74 4.63,28.27 18.57,34.51 13.49,6.04 24.06,0.53 31.67,-16.48 6.54,-14.61 7.71,-28.09 3.48,-40.38zm126.99 -169.88l-17.11 29.61c-3.28,-1.89 -20.53,-1.01 -51.74,2.72 -32.14,3.77 -49.41,7.8 -51.9,12.1l-0.5 0.86c20.11,11.62 44.12,24.91 72.09,39.81l-12.83 22.21c-33.75,-20.99 -68.47,-41.73 -104.22,-62.38 -36.32,-20.98 -68.1,-37.72 -95.25,-50.14l12.6 -25.04c19.75,12.67 58.91,35.86 117.45,69.68l0.5 -0.86c1.61,-2.8 -1.3,-16.08 -8.65,-39.9 -7.35,-23.82 -12.7,-36.67 -15.97,-38.56l16.11 -27.89c2.98,1.72 6.95,12.85 11.95,33.3 4.6,19.13 7.73,36.04 9.46,50.7l1.11 0.64c14.87,-5.3 37.73,-10 68.58,-13.99 29.11,-3.74 45.22,-4.65 48.3,-2.87zm93.61 -134.98l-15.38 21.57c-22.01,-18.31 -46.37,-36.97 -73.15,-56.07 -14.34,-10.22 -25.68,-14.7 -34.06,-13.48 -8.43,1.19 -15.65,6.06 -21.68,14.52 -8.46,11.86 -11.8,26.2 -10.09,43.05 48.22,34.38 81.06,57.31 98.49,68.76l-14.89 20.89c-22.82,-17.37 -55.52,-41.18 -98.13,-71.56 -37.27,-26.58 -67.25,-46.25 -90.02,-59l14.76 -23.48c26.45,19.84 51.26,37.96 74.33,54.41l0.49 -0.69c-3.22,-20.19 0.21,-37.33 10.31,-51.5 9.04,-12.67 19.38,-20.19 31.02,-22.63 11.65,-2.37 25.73,2.29 42.24,14.06 1.72,1.22 4.92,3.63 9.73,7.31 4.77,3.65 9.01,6.79 12.72,9.44 12.76,9.09 33.82,23.87 63.31,44.41zm62.36 -145.29c23.91,20.76 23.99,44.81 0.27,72.2 -10.54,12.05 -21.69,22.18 -33.47,30.31l-15.11 -19.12c12.39,-5.96 23.41,-14.49 33.09,-25.64 13.89,-15.99 15.75,-28.39 5.56,-37.24 -4.91,-4.26 -10.37,-5.85 -16.33,-4.83 -6.03,1.01 -14.38,4.1 -25.12,9.19 -13.64,6.39 -24.6,10.1 -32.95,11.08 -12.3,1.44 -22.93,-1.74 -31.86,-9.5 -9.31,-8.09 -14.59,-18.2 -15.78,-30.3 -1.24,-12.13 3.8,-24.62 15.01,-37.53 10.95,-12.61 20.9,-21.68 29.94,-27.26l14.73 18.79c-10.4,4.85 -20.11,12.48 -29.18,22.91 -12.22,14.07 -13.79,25.03 -4.69,32.93 4.57,3.97 9.67,5.64 15.22,4.93 5.55,-0.71 14.33,-3.88 26.31,-9.54 12.93,-6.15 23.56,-9.76 31.85,-10.91 12.66,-1.44 23.48,1.69 32.5,9.53zm108.09 -82.66l14.08 15.9c-3.05,7.69 -6.94,14 -11.59,18.92 -12.14,12.59 -23.96,17.79 -35.58,15.54 -11.57,-2.21 -26.65,-12.18 -45.14,-29.9 -12,-11.49 -27.57,-26.56 -46.69,-45.15 -3.75,3.91 -9.04,9.93 -15.89,18.03l-16.43 -16.98c6.8,-6.22 12.75,-11.94 17.81,-17.22 -4.7,-4.5 -15.54,-15.5 -32.5,-33.13l13.97 -18.28c15.31,16.94 26.52,28.85 33.63,35.65 6.56,-6.85 15.9,-17.32 27.86,-31.41l16.81 17.55c-12.55,12.13 -22.52,22.06 -29.81,29.67 11.7,11.48 24.94,24.32 39.74,38.5 16.13,15.45 28.28,24.21 36.38,26.11 8.14,1.94 16.18,-1.22 24.09,-9.48 2.61,-2.73 5.73,-7.52 9.26,-14.33zm133.93 -87.85l-16.7 15.65c-4.34,-3.31 -8.09,-6.76 -11.2,-10.38l-1.09 0.94c-1.17,17.03 -9.56,32.21 -25.17,45.61 -8.49,7.28 -18.15,10.75 -29.04,10.43 -10.85,-0.28 -20.7,-5.58 -29.57,-15.91 -10.85,-12.65 -14.82,-26.96 -11.86,-42.9 3,-15.89 17.29,-35.19 42.95,-57.94 -1.47,-2.18 -3.31,-4.55 -5.48,-7.08 -8.72,-10.16 -16.93,-14.83 -24.65,-14.06 -7.72,0.77 -16.48,5.37 -26.3,13.78 -11.58,9.94 -21.56,21.28 -30.01,34.1l-12.73 -18.65c8.02,-13.03 19.2,-25.71 33.54,-38.01 13.13,-11.26 25.88,-16.94 38.18,-17.02 12.34,-0.05 24.79,7.2 37.27,21.75 3.33,3.88 9.22,11.05 17.6,21.5 8.38,10.45 14.06,17.37 16.95,20.74 12.84,14.96 25.29,27.48 37.31,37.45zm-40.13 -7.15c-11.09,-12.23 -20.94,-23.32 -29.47,-33.27 -13.85,11.88 -23.43,22.08 -28.65,30.58 -8.52,14.49 -7.87,27.55 2.08,39.14 9.63,11.22 21.53,10.74 35.67,-1.4 12.15,-10.43 18.94,-22.12 20.36,-35.05zm185.01 -100.24l-21.52 15.45c-14.92,-24.44 -32.21,-50.32 -51.91,-77.76 -9.72,-13.54 -18.85,-21.07 -27.35,-22.49 -8.52,-1.48 -17.33,1.09 -26.5,7.67 -11.19,8.03 -18.25,20.01 -21.19,35.87 21.58,30.06 45.09,62.48 70.53,97.22l-21.56 15.48c-20.14,-30.95 -35.07,-53.12 -44.67,-66.48 -14.8,-20.63 -30.92,-39.42 -48.33,-56.33l18.47 -18.25 13.86 14.53 0.93 -0.67c3.18,-20.2 11.45,-35.1 24.78,-44.67 13.08,-9.39 25.55,-13.42 37.37,-12.12 11.81,1.37 23.67,10.29 35.59,26.9 1.2,1.67 3.48,5.02 6.85,10.06 3.41,5.08 5.69,8.44 6.89,10.11 10.56,14.71 26.47,36.53 47.76,65.5zm214.48 -192.26c9.43,18.83 9.51,36.98 0.35,54.43 -8.96,16.98 -25.65,31.61 -50.05,43.82 -6.76,3.38 -20.2,9.74 -40.28,19.04 -13.87,-30.7 -29.83,-64.16 -48.02,-100.47 -17.08,-34.13 -32.73,-63.82 -46.86,-89.06l15.6 -7.81c3.07,-1.54 9.11,-4.68 18.16,-9.59 9.05,-4.91 15.69,-8.41 19.86,-10.5 36.09,-18.07 61.11,-13.19 75.06,14.68 10.87,21.71 9.57,40.44 -3.93,56.21l0.72 1.44c26.66,-7.26 46.46,1.97 59.39,27.8zm-20.81 13.52c-11.96,-23.89 -36.82,-26.36 -74.69,-7.41 -6.94,3.47 -12.92,6.84 -17.91,10.09 12.96,25.88 25.04,48.79 36.17,68.69 3.78,-0.78 9.76,-3.27 18.11,-7.46 20.94,-10.48 34.26,-20.94 39.96,-31.43 5.04,-9.48 4.48,-20.26 -1.64,-32.48zm-53.61 -80.77c-10.05,-20.07 -27.16,-24.06 -51.39,-11.93 -12.18,6.1 -21.65,11.71 -28.47,16.98 4.15,6.62 14.41,26.22 30.67,58.71 4.37,-1.94 9.08,-4.18 14.24,-6.76 17.16,-8.59 28.6,-17.05 34.19,-25.31 6.47,-9.27 6.69,-19.82 0.75,-31.69zm177.37 94.48l-24.48 9.72c-6.77,-20.69 -15.26,-43.98 -25.55,-69.9 -11.56,-29.13 -22.84,-52.98 -33.88,-71.49l25.45 -14.82c7.3,21.49 17,47.53 29.13,78.1 9.61,24.22 19.4,46.99 29.33,68.39zm-69.36 -191.35c2.03,5.11 2.33,10.19 0.83,15.15 -1.46,4.94 -4.91,8.52 -10.31,10.67 -4.62,1.83 -8.83,1.59 -12.71,-0.63 -3.91,-2.28 -6.76,-5.69 -8.6,-10.33 -2.01,-5.06 -2.18,-10.07 -0.61,-15 1.58,-4.93 5.09,-8.47 10.49,-10.62 4.44,-1.76 8.59,-1.55 12.48,0.72 3.83,2.24 6.67,5.6 8.43,10.05zm157.19 -5.11l2.14 26.62c-8.25,-0.76 -15.46,-0.07 -21.58,2.02 -17.31,5.9 -25.37,18.93 -24.24,39.03 16.12,47.27 27.66,80.19 34.58,98.79l-24.37 8.31c-9.64,-33.05 -17.51,-58.59 -23.63,-76.52 -8.3,-24.35 -18.43,-46.96 -30.36,-67.78l22.83 -12.07c5.6,10.71 9.02,18 10.32,21.78l1.13 -0.38c4.35,-19.74 13.14,-31.84 26.36,-36.35 7.02,-2.39 15.92,-3.55 26.82,-3.45zm207.94 105.2l-20.93 5.69c-1.83,-4.37 -3.32,-9.1 -4.5,-14.19l-1.55 0.36c-7.15,14.36 -20.53,23.78 -40.1,28.3 -17.97,4.15 -33.99,0.15 -47.96,-11.96 -14.03,-12.16 -23.42,-28.52 -28.18,-49.15 -5.39,-23.33 -4.12,-44.83 3.78,-64.5 7.92,-19.61 22.62,-31.96 44.13,-36.93 15.3,-3.53 27.11,-2.55 35.31,2.91l1.17 -0.27c-6.06,-26.26 -12.68,-51.81 -19.82,-76.79l26.67 -7.35c4.41,27.26 11.66,62.65 21.69,106.11 10.2,44.17 20.28,83.41 30.3,117.76zm-30.07 -25.96c-7.6,-32.91 -15.67,-64.35 -24.3,-94.46 -9.34,-5.31 -19.69,-6.63 -31.12,-3.99 -15.98,3.69 -26.57,12.4 -31.78,26.09 -5.2,13.74 -5.72,29.6 -1.57,47.57 3.71,16.08 10.56,28.75 20.61,38.01 10.09,9.24 21.78,12.36 35.1,9.29 16.75,-3.87 27.78,-11.37 33.06,-22.51zm269.92 -166.35c0.78,6.45 -4.44,32.77 -15.6,79.01 -11.17,46.24 -16.27,73.05 -15.37,80.49l-19.64 2.39c-0.5,-4.08 -7.28,-19.15 -20.31,-45.27 -16.06,-32.02 -27.72,-57.19 -34.99,-75.39l-1.19 0.14c-2.38,18.76 -7.09,45.91 -14.14,81.52 -5.58,28.26 -8.13,44.41 -7.63,48.49l-19.79 2.4c-0.76,-6.23 -11.7,-31.2 -32.81,-74.81 -21.17,-43.6 -32.03,-67.91 -32.64,-72.98l25.71 -3.12c0.68,5.57 8.78,25.35 24.33,59.33 15.49,33.99 23.61,53.88 24.31,59.67l1.58 -0.19c-1.07,-8.82 2.17,-30.82 9.67,-65.98 7.54,-35.22 10.92,-55.67 10.23,-61.34l24.58 -2.98c0.6,4.96 9.12,24.86 25.61,59.68 16.45,34.83 24.94,54.5 25.5,59.03l1.43 -0.17c-0.8,-6.56 2,-27.28 8.39,-62.08 6.39,-34.8 9.07,-56.44 8.05,-64.83l24.73 -3zm173.8 149.97l-22.83 1.71c-1.3,-5.3 -2.06,-10.33 -2.2,-15.11l-1.44 0.05c-11.59,12.53 -27.65,19.09 -48.22,19.72 -11.18,0.35 -20.88,-3.02 -29.16,-10.1 -8.27,-7.02 -12.62,-17.34 -13.04,-30.94 -0.52,-16.66 5.38,-30.29 17.68,-40.85 12.3,-10.5 35.54,-16.56 69.8,-18.17 0.22,-2.62 0.28,-5.62 0.17,-8.95 -0.42,-13.39 -3.87,-22.17 -10.37,-26.42 -6.5,-4.24 -16.2,-6.17 -29.12,-5.76 -15.25,0.47 -30.14,3.05 -44.76,7.73l1.78 -22.51c14.41,-5.11 31.08,-7.97 49.96,-8.56 17.29,-0.54 30.78,3.05 40.41,10.7 9.64,7.7 14.78,21.16 15.38,40.32 0.16,5.11 0.24,14.39 0.21,27.78 -0.03,13.4 0.05,22.35 0.19,26.79 0.61,19.71 2.45,37.27 5.56,52.57zm-26.76 -30.74c-0.96,-16.48 -1.67,-31.3 -2.07,-44.4 -18.24,0.56 -32.1,2.5 -41.5,5.84 -15.72,5.94 -23.41,16.52 -22.93,31.78 0.46,14.77 10.03,21.87 28.66,21.29 16,-0.5 28.63,-5.33 37.84,-14.52zm165.04 17.84l-3.34 20.97c-7.87,2.52 -15.23,3.52 -21.97,3.06 -17.44,-1.38 -28.96,-7.22 -34.6,-17.62 -5.64,-10.35 -7.51,-28.32 -5.57,-53.86 1.26,-16.56 3.01,-38.16 5.23,-64.74 -5.4,-0.41 -13.41,-0.69 -24.01,-0.83l2.69 -23.47c9.12,1.31 17.32,2.27 24.61,2.82 0.49,-6.48 2.11,-21.85 4.96,-46.15l23 -0.81c-3.37,22.59 -5.45,38.81 -6.2,48.61 9.47,0.72 23.48,1.29 41.95,1.58l-2.89 24.13c-17.34,-1.99 -31.34,-3.39 -41.85,-4.19 -1.44,16.33 -2.94,34.71 -4.5,55.15 -1.7,22.27 -0.74,37.22 2.93,44.69 3.67,7.52 11.22,11.72 22.62,12.59 3.76,0.29 9.45,-0.34 16.95,-1.94zm153.43 15.34l-4.11 21.44c-8.4,4.02 -19.16,5.23 -32.24,3.64 -24.96,-3.03 -43.13,-13.07 -54.48,-30.06 -11.31,-16.98 -15.67,-36.37 -13.02,-58.16 2.8,-23.06 12.16,-42.01 28.04,-56.93 15.88,-14.92 35.24,-20.96 58.09,-18.19 11.5,1.39 20.66,3.85 27.61,7.27l-7.02 24.89c-9.61,-5.42 -19.62,-8.76 -30.03,-10.02 -13.67,-1.66 -25.22,2.37 -34.6,12.03 -9.4,9.72 -15.06,22.57 -17.01,38.62 -2.12,17.43 0.95,32.57 9.17,45.38 8.21,12.81 21.17,20.26 38.79,22.39 7.25,0.88 17.51,0.11 30.82,-2.3zm164.75 64.34l-25.8 -6.01c8.56,-27.33 16.54,-56.96 23.99,-88.99 4,-17.15 3.82,-29.34 -0.5,-36.62 -4.31,-7.34 -11.56,-12.17 -21.68,-14.52 -14.18,-3.3 -28.72,-0.93 -43.65,7.06 -13.43,57.68 -22.13,96.78 -26.08,117.25l-24.98 -5.82c7.37,-27.71 16.94,-67.01 28.81,-117.98 10.39,-44.59 17.16,-79.8 20.28,-105.71l27.33 4.71c-8.28,32.01 -15.58,61.85 -22.01,89.45l0.82 0.19c17.44,-10.66 34.6,-14.02 51.54,-10.07 15.15,3.53 26.05,10.23 32.74,20.06 6.63,9.87 7.67,24.66 3.08,44.41 -0.48,2.06 -1.48,5.93 -3.06,11.78 -1.55,5.8 -2.85,10.91 -3.88,15.35 -3.56,15.26 -9.19,40.36 -16.96,75.46zm80.69 25.36l-24.91 -8.57c8.33,-20.1 17.05,-43.31 26.12,-69.68 10.2,-29.63 17.16,-55.08 20.84,-76.32l28.97 5.32c-8.46,21.07 -18.06,47.14 -28.75,78.24 -8.48,24.64 -15.88,48.3 -22.27,71.01zm71.95 -190.39c-1.79,5.2 -4.86,9.26 -9.24,12.04 -4.32,2.8 -9.27,3.27 -14.77,1.38 -4.71,-1.62 -7.74,-4.54 -9.24,-8.76 -1.48,-4.27 -1.43,-8.71 0.2,-13.44 1.77,-5.15 4.91,-9.07 9.31,-11.78 4.41,-2.72 9.38,-3.12 14.88,-1.23 4.51,1.56 7.52,4.41 9,8.68 1.45,4.2 1.41,8.59 -0.15,13.11zm98 255.37l-24.59 -9.85c12.6,-25.71 25.15,-54.2 37.71,-85.56 6.2,-15.47 7.64,-27.22 4.28,-35.15 -3.33,-7.98 -10.23,-14.04 -20.7,-18.23 -12.78,-5.12 -26.68,-4.65 -41.63,1.39 -13.76,34.35 -28.48,71.6 -44.13,111.71l-24.64 -9.87c15.29,-33.61 25.97,-58.12 32.08,-73.39 9.44,-23.57 16.64,-47.26 21.56,-71.02l25.32 5.78 -4.81 19.5 1.06 0.43c18.75,-8.17 35.76,-9.19 50.99,-3.09 14.95,5.99 25.04,14.35 30.3,25.01 5.19,10.7 4.03,25.49 -3.57,44.47 -0.76,1.91 -2.36,5.63 -4.8,11.18 -2.46,5.6 -4.06,9.33 -4.83,11.24 -6.74,16.81 -16.59,41.94 -29.59,75.46zm253.65 -69.13l-12.22 18.98c-16.1,-8.14 -26.47,-9.78 -31.07,-4.76l-0.73 1.44c1.74,10.34 0.17,20.38 -4.72,30.05 -7.65,15.12 -18.4,25.37 -32.28,30.68 -13.84,5.33 -30.02,3.31 -48.57,-6.07 -8.2,-4.15 -14.3,-8.41 -18.15,-12.79 -5.96,1.22 -10.22,4.35 -12.78,9.41 -3.13,6.2 -2.69,11.59 1.3,16.16 5.08,5.93 17.73,14.07 38.09,24.37 32.96,16.67 43.25,37.19 30.91,61.58 -8.8,17.4 -22.52,28.57 -41.14,33.54 -18.59,4.92 -38.08,2.28 -58.44,-8.02 -20.89,-10.57 -33.6,-22.34 -38.18,-35.31 -4.58,-12.96 -3.92,-25.39 2.09,-37.3 5.49,-10.85 12.13,-18.46 19.8,-22.85 7.73,-4.37 15.24,-5.68 22.5,-3.94l0.65 -1.29c-4.98,-7.12 -4.81,-15.94 0.48,-26.4 4.79,-9.47 13.3,-15.62 25.63,-18.41l0.58 -1.14c-3.34,-4.86 -5.57,-11.35 -6.66,-19.43 -1.14,-8.11 0.57,-16.65 5.06,-25.52 7.8,-15.42 18.7,-25.65 32.69,-30.72 13.98,-5.07 29.61,-3.26 46.82,5.44 14.15,7.16 23.79,15.64 28.93,25.4l1.46 0.74c11.03,-14.97 22.44,-19.47 34.24,-13.5 6.39,3.23 11.01,6.44 13.71,9.67zm-114.73 169.03c4.59,-9.07 4.87,-17.02 0.86,-23.72 -4.06,-6.72 -14.29,-14.26 -30.66,-22.54 -11.09,-5.61 -20.9,-11.32 -29.51,-17.1 -13.48,0.34 -23,6.05 -28.59,17.11 -11.94,23.6 -4.05,42.46 23.68,56.49 14.46,7.31 27.51,9.93 39.17,7.92 11.61,-2.04 19.96,-8.08 25.06,-18.15zm42.02 -127.91c5.39,-10.66 6.51,-20.37 3.33,-29.07 -3.13,-8.68 -9.37,-15.39 -18.65,-20.08 -8.73,-4.42 -17.43,-5.39 -26.09,-2.93 -8.65,2.47 -15.52,8.78 -20.61,18.83 -5.34,10.56 -6.39,20.12 -3.16,28.72 3.2,8.54 9.56,15.24 19.01,20.02 8.65,4.37 17.26,5.3 25.82,2.91 8.56,-2.39 15.35,-8.54 20.34,-18.41zm222.42 241.67l-15.64 18.67c-12.08,-3.7 -23.8,-9.6 -35.25,-17.77 -27.2,-19.39 -41.7,-42.29 -43.51,-68.69 -1.81,-26.4 5.86,-51.64 22.99,-75.65 17.96,-25.19 41.1,-41.45 69.31,-48.83 28.29,-7.4 55.29,-1.85 81.07,16.53 7.13,5.08 13.77,11.59 19.99,19.65l-18.35 18.71c-6.81,-9.7 -13.78,-17.06 -20.9,-22.14 -19.14,-13.65 -38.37,-17.33 -57.7,-11.12 -19.33,6.21 -35.81,18.88 -49.48,38.06 -13.93,19.54 -20.2,40.31 -18.76,62.36 1.44,22.11 12.18,40.28 32.3,54.62 7.65,5.45 18.96,10.66 33.94,15.6zm174.65 76.91c-18.07,21.09 -37.63,32.94 -58.59,35.47 -20.95,2.54 -38.77,-2.49 -53.46,-15.07 -13.71,-11.74 -21,-27.06 -21.89,-45.96 -0.89,-18.9 6.85,-37.87 23.15,-56.9 18.22,-21.27 37.86,-33.19 58.95,-35.82 21.14,-2.67 39.04,2.34 53.68,14.89 13.74,11.77 20.97,27.1 21.71,46.1 0.74,19 -7.1,38.09 -23.55,57.3zm-22.86 -12.05c11.03,-12.87 17.91,-26.79 20.7,-41.74 2.75,-14.98 -1.18,-27.05 -11.86,-36.2 -10.61,-9.09 -22.85,-11.37 -36.69,-6.76 -13.83,4.61 -26.1,13.12 -36.83,25.65 -11.09,12.95 -17.98,26.88 -20.77,41.83 -2.76,14.91 1.28,27 12.04,36.21 10.61,9.09 22.85,11.3 36.64,6.66 13.87,-4.65 26.1,-13.2 36.76,-25.65zm198.06 189.34c13.12,-11.41 19.99,-20.95 20.7,-28.69 0.68,-7.77 -3.04,-16.27 -11.13,-25.57 -6.83,-7.84 -18.19,-12.18 -34.02,-13.03 -10.23,8.38 -20.13,16.73 -29.73,25.08 -13.66,11.89 -33.83,29.84 -60.56,53.89l-17.42 -20.02c24.75,-18.7 49.14,-38.48 73.2,-59.42 13.12,-11.41 19.98,-20.95 20.66,-28.72 0.71,-7.74 -2.87,-16.08 -10.64,-25.01 -7.96,-9.15 -19.72,-13.94 -35.26,-14.45 -25.94,22.58 -55.99,48.99 -90.12,79.16l-17.39 -19.99c29.04,-22.83 49.81,-39.66 62.22,-50.45 18.94,-16.48 36.07,-34.3 51.47,-53.49l19.9 16.69 -13.18 14.9 0.98 1.12c19.19,0.04 33.83,5.88 43.95,17.5 15.11,17.36 19.39,33.28 12.83,47.74l1.04 1.2c20.52,1.58 35.46,7.75 44.83,18.51 10.7,12.3 15.78,24.22 15.19,35.81 -0.56,11.55 -8.5,24 -23.84,37.35 -1.55,1.35 -4.67,3.94 -9.37,7.76 -4.74,3.86 -7.83,6.49 -9.38,7.84 -13.66,11.89 -33.93,29.72 -60.79,53.62l-17.39 -19.98c22.93,-16.98 47.32,-36.77 73.26,-59.35zm157.2 229.59c14.67,-9.33 22.88,-17.75 24.73,-25.29 1.83,-7.59 -0.58,-16.54 -7.2,-26.94 -5.58,-8.77 -16.17,-14.75 -31.71,-17.94 -11.37,6.76 -22.39,13.55 -33.13,20.38 -15.28,9.72 -37.89,24.48 -67.89,44.28l-14.26 -22.39c27.25,-14.81 54.32,-30.75 81.22,-47.88 14.67,-9.34 22.87,-17.75 24.7,-25.33 1.85,-7.54 -0.45,-16.33 -6.81,-26.31 -6.51,-10.23 -17.42,-16.72 -32.72,-19.53 -29.01,18.47 -62.65,40.12 -100.89,64.87l-14.23 -22.35c32.11,-18.26 55.16,-31.81 69.03,-40.65 21.18,-13.48 40.77,-28.55 58.85,-45.24l17.2 19.46 -15.25 12.77 0.8 1.26c18.96,2.89 32.59,10.84 40.86,23.84 12.36,19.42 14.22,35.79 5.59,49.12l0.85 1.34c20.06,4.61 33.92,12.93 41.58,24.97 8.76,13.76 12,26.3 9.69,37.67 -2.27,11.34 -11.97,22.47 -29.13,33.39 -1.73,1.1 -5.21,3.2 -10.43,6.28 -5.26,3.12 -8.7,5.26 -10.44,6.36 -15.28,9.72 -37.98,24.35 -68.08,43.99l-14.23 -22.35c25.2,-13.39 52.26,-29.33 81.27,-47.8zm11 233.56l-10.21 -20.15c5.02,-3.74 9.29,-6.44 12.83,-8.04l-0.59 -1.31c-16.41,-6.76 -28.38,-18.53 -35.98,-35.33 -6.93,-15.3 -7.87,-28.3 -2.75,-38.96 5.17,-10.69 20.19,-21.68 45.2,-32.99 3.59,-1.63 8.9,-3.92 16.02,-6.92 7.06,-2.98 11.91,-5.06 14.49,-6.23 14.53,-6.57 31.29,-15.08 50.3,-25.48l12.18 24.22c-19.57,7.55 -36.1,14.42 -49.66,20.56 -31.13,14.08 -50.63,25.03 -58.43,32.87 -7.84,7.86 -8.88,18.09 -3.21,30.64 6.39,14.13 15.62,24.03 27.68,29.65 54.97,-24.87 91.84,-42.04 110.51,-51.57l11.81 23.41c-18.89,7.72 -44.76,18.99 -77.56,33.83 -21.06,9.53 -41.94,20.12 -62.62,31.82zm63.97 168.6l-8.55 -25.07c27.71,-7.2 57.5,-16.24 89.47,-27.15 15.78,-5.38 25.63,-11.94 29.46,-19.66 3.88,-7.73 3.98,-16.9 0.34,-27.58 -4.44,-13.03 -13.86,-23.26 -28.19,-30.67 -35.02,11.94 -72.87,25.06 -113.49,39.33l-8.57 -25.12c35.46,-10.31 61.01,-18.18 76.57,-23.48 24.03,-8.2 46.69,-18.18 67.92,-29.93l12.11 22.97 -17.93 9.06 0.37 1.08c18.42,8.9 30.28,21.14 35.57,36.67 5.2,15.24 5.44,28.34 0.77,39.28 -4.73,10.91 -16.71,19.67 -36.06,26.27 -1.94,0.66 -5.81,1.88 -11.61,3.64 -5.85,1.79 -9.72,3 -11.67,3.66 -17.14,5.84 -42.63,14.75 -76.52,26.72zm23.69 81.16l-7.11 -25.37c21.28,-4.57 45.33,-10.58 72.18,-18.11 30.17,-8.45 55.07,-17.19 74.64,-26.23l12.08 26.86c-22.14,5.02 -49.04,11.93 -80.71,20.81 -25.09,7.03 -48.76,14.39 -71.08,22.03zm197.55 -49c-5.3,1.48 -10.38,1.26 -15.16,-0.76 -4.76,-1.97 -7.96,-5.77 -9.53,-11.37 -1.34,-4.79 -0.66,-8.95 1.96,-12.57 2.67,-3.64 6.36,-6.12 11.18,-7.47 5.24,-1.47 10.25,-1.12 14.98,0.96 4.73,2.08 7.89,5.94 9.46,11.55 1.29,4.59 0.65,8.7 -2.03,12.33 -2.63,3.58 -6.27,6.04 -10.87,7.33zm-143.59 178.61l-21.02 3.07c-4.76,-6.76 -7.91,-13.48 -9.48,-20.06 -3.88,-17.06 -1.75,-29.8 6.5,-38.28 8.19,-8.47 24.79,-15.62 49.74,-21.38 16.19,-3.74 37.32,-8.51 63.35,-14.31 -1.22,-5.28 -3.35,-13 -6.37,-23.17l23.2 -4.44c1.47,9.1 3,17.21 4.65,24.33 6.33,-1.46 21.48,-4.5 45.53,-9.03l7.63 21.7c-22.57,3.52 -38.67,6.37 -48.25,8.59 2.14,9.25 5.78,22.8 11.01,40.51l-23.89 4.44c-3.28,-17.15 -6.11,-30.93 -8.48,-41.2 -16.01,3.49 -34.01,7.54 -53.99,12.15 -21.76,5.02 -35.74,10.39 -41.78,16.12 -6.08,5.74 -7.84,14.2 -5.27,25.35 0.85,3.68 3.15,8.92 6.91,15.59zm153.65 145.18c-6.89,0.83 -29.72,-3.76 -68.55,-13.81 -44.39,-11.54 -75.48,-18.28 -93.29,-20.22 -28.94,-3.24 -47.55,-7.24 -55.91,-11.99 -11.47,-6.42 -18.44,-19.55 -20.83,-39.28l22.47 -3.93c1.47,12.09 7.26,21.55 17.39,28.44 10.13,6.88 22.08,9.48 35.87,7.81 11.96,-1.45 39.34,-13.79 82.09,-36.95 42.8,-23.17 64.66,-34.84 65.6,-34.95l3.63 29.91c-2.87,0.35 -21.76,8.8 -56.57,25.39 -34.81,16.54 -56.47,25.33 -64.85,26.35l0.18 1.43c7,-0.85 27.92,1.82 62.75,8.01 34.89,6.18 57.13,8.69 66.83,7.51l3.19 26.31z"/>
  <g id="_2495845569952">
   <path class="fil5" d="M1984.18 1176.12l-9.37 43c30.56,15.69 83.72,67.56 94.38,106.4 -19.98,27.34 -47.33,35.92 -47.46,86.8 25.37,10.22 4.31,-1.94 19.7,14.27 2.87,3.02 8.18,12.67 11.86,17.56 84.57,180.03 86.22,143.42 -63.28,246.12 -126.51,86.91 -250.81,220.92 -306.58,360.11 36.09,-13.86 185.16,-84.69 210.76,-87.5 -10.22,36.19 -131.89,126.02 -171.64,156.38 -21.19,16.19 -83.94,51.87 -93.94,70.42 -13.65,25.34 -19.22,98.26 -29.66,128.51 66.15,-7.97 335.59,-242.23 377.99,-251.35 -15.91,47.79 -134.47,172.29 -168.59,205.41 -33.83,32.84 -59.17,57.78 -96.52,90.73 -123.55,109.04 -137.48,36.73 -142.68,227.99 -1.38,51.03 -4.48,129.75 28.81,154.44 44.08,32.72 111.27,-3.99 145.84,-21.74 50.78,-26.07 80.03,-39.95 144.37,-52.24l19.68 -6.13 30.83 1.73c25.86,-56.92 47.98,-64.81 18.85,-139.6 -14.76,-37.9 -5.43,-34.35 -0.2,-40.42 102.67,142.39 -12.47,159.97 -3.89,261.35 29.05,53.73 131.56,87.55 170.72,27.06 38.9,-60.09 -18.72,-174.33 32.97,-236.2 21.19,24.44 -0.39,4.1 0.37,74.31 0.33,30.03 7.15,50.4 8.4,81.04l11.18 17.99 34.24 -1.35 50.65 -141.6c35.26,65.68 -48.86,125.48 -6.84,178.01 47.59,59.5 115.14,53.48 125.78,-38.81l8.56 -52.65 -82.5 11.92c8.44,-9.78 1.27,-3.71 12.9,-11.67 8.25,-5.65 2.09,-2.41 15.13,-8 8.27,-3.54 16.22,-5.24 27.97,-9.01 335.86,-107.95 448.58,-371.41 446.72,-737.28 -1.29,-253.44 -65.77,-546.01 -216.35,-736.07 -105.36,-132.99 -61.26,-129.28 -97.81,-214.32 -83.13,-5.9 -228.64,38.84 -308.33,59.23 -127.09,32.51 -159.94,53.74 -203.04,165.14z"/>
   <path class="fil6" d="M2238.55 1999.83c-87.22,27.39 -140.15,-3.89 -199.47,69.44 -23.51,29.06 -21.85,70.99 -3.95,103.82 19.26,35.31 46.27,43.86 68.41,66.05 -54.42,10.66 -140.28,4.96 -167.03,57.46 -40.17,78.84 73.35,120.6 85.2,127.85 -85.9,5.92 -248.05,16.81 -280.37,113.46 145.22,-92.17 188.41,-99.15 414.07,-56.93 63.25,11.83 314.98,66.78 356.7,-29.93 7.86,-18.23 3.5,-11.89 5.6,-24.97l5.65 -32.42c86.87,-17.68 151.24,-49.69 178.83,-112 58.07,-131.17 -107.58,-149.42 -123.63,-154.85 49.15,-31.69 168.89,-65.95 167.31,-164.88 -2.61,-162.72 -220.91,-54.81 -363.24,-91.94 -42.28,-11.02 -86.18,-38.57 -121.21,-40.85 -95.57,-6.24 -103,98.05 -73.17,139.08 14.98,20.59 25.37,16.19 50.3,31.61z"/>
   <path class="fil7" d="M1888.16 2671.44c-64.33,12.29 -93.59,26.17 -144.37,52.24 -34.57,17.75 -101.76,54.47 -145.84,21.74 -33.28,-24.7 -30.19,-103.42 -28.81,-154.44 5.2,-191.26 19.13,-118.95 142.68,-227.99 37.34,-32.96 62.68,-57.89 96.52,-90.73 34.12,-33.13 152.68,-157.63 168.59,-205.41 -42.39,9.12 -311.84,243.37 -377.99,251.35 10.44,-30.25 16,-103.17 29.66,-128.51 10,-18.55 72.75,-54.23 93.94,-70.42 39.75,-30.35 161.43,-120.18 171.64,-156.38 -25.61,2.8 -174.67,73.63 -210.76,87.5 55.78,-139.19 180.07,-273.2 306.58,-360.11 149.5,-102.7 147.85,-66.09 63.28,-246.12 -29.03,-1.9 -8.22,-2.9 -15.82,8.68 10.74,43.78 37.09,92.71 43.91,136.65 -210.65,131.58 -341.57,234.46 -452.37,466.19 -51.46,107.63 -72.87,219.3 -87.48,369.65 -10.78,111.02 -132.03,191.07 -216.49,246.92 -43.85,29 -86.17,58.63 -135.07,89.88 -41.22,26.35 -112.95,60.41 -129.66,103 -32.41,82.65 44.76,96.25 99.69,124.21 53.2,27.07 112.56,46.74 174.83,56.96 69.09,11.35 154.52,0.61 215.77,-13.69 155.36,-36.27 108.24,-105.43 222.52,-241.61 62.79,-74.83 95.89,-70.33 115.06,-119.55z"/>
   <path class="fil7" d="M1984.18 1176.12c43.1,-111.4 75.95,-132.63 203.04,-165.14 79.68,-20.39 225.2,-65.13 308.33,-59.23 36.55,85.04 -7.56,81.33 97.81,214.32 150.57,190.06 215.05,482.63 216.35,736.07 1.86,365.87 -110.86,629.33 -446.72,737.28 -11.75,3.78 -19.7,5.48 -27.97,9.01 -13.04,5.58 -6.87,2.35 -15.13,8 -11.63,7.96 -4.46,1.89 -12.9,11.67l82.5 -11.92c41.66,-22.91 149.28,-34.61 261.93,-154.74 240.24,-256.21 234.74,-681.43 146.61,-1007.52 -29.24,-108.22 -65.81,-214.77 -125.61,-294.1 -43.06,-57.11 -102.35,-113.91 -123.72,-190.86 -32,-115.22 -10.54,-128.82 -363.62,-29.81 -105.87,29.69 -170.67,54.87 -206.37,162.12 -10.07,30.24 -9.84,23.56 5.47,34.86z"/>
   <path class="fil7" d="M2021.72 1412.33c0.13,-50.89 27.48,-59.46 47.46,-86.8 -10.66,-38.84 -63.82,-90.7 -94.38,-106.4 -177.29,60.95 -306.01,106.12 -432.53,240.65 -41.8,44.44 -26.58,50.7 -26.55,50.98l13.15 12.98c8.42,-0.36 6.93,0.61 14.99,-1.87 9.19,-2.84 18.47,-9.36 24.69,-12.87 19.53,-11.01 33.3,-18.22 54.78,-28.07 245.48,-112.66 318.39,-54.3 398.39,-68.61z"/>
   <path class="fil7" d="M1907.84 2665.31c1.04,1.13 3.11,1.09 3.54,2.93l20.6 12.74c-50,125.38 49.8,119.99 77.56,177.07 45.37,93.26 92.05,266.24 110.43,371.78 -42.76,-6.16 -65.63,-25.42 -99.07,-11.09 3.73,41.69 -0.52,21.97 76.82,45.89 85.68,26.5 173.18,117.89 201.55,128.78 19.13,7.34 -27.13,-1.92 9.59,2.48 20.15,2.41 15.94,-7.23 15.94,-7.23 0,0.08 20.88,-3.7 -26.89,-39.56 -19.44,-14.58 -31.48,-22.5 -45.27,-40.27 50.74,12.5 112.9,68.1 153.07,55.08 -6.96,-49.88 -62.24,-50.14 -124.7,-80.58 -31.02,-15.12 -19.13,-14.91 -32.76,-40.48l-74.8 -2.56 -98.81 -393.88c79.06,-24.91 92.32,-55.57 91.27,-151.81 -1.26,-30.65 -8.07,-51.02 -8.4,-81.04 -0.76,-70.21 20.82,-49.88 -0.37,-74.31 -51.69,61.87 5.93,176.11 -32.97,236.2 -39.16,60.48 -141.67,26.67 -170.72,-27.06 -8.59,-101.38 106.56,-118.96 3.89,-261.35 -5.23,6.07 -14.56,2.52 0.2,40.42 29.14,74.78 7.02,82.68 -18.85,139.6l-30.83 -1.73z"/>
   <path class="fil7" d="M2220.25 1650.75c-21.39,68.24 222.83,319.23 361.79,114.44 18.9,-27.85 66.28,-119.72 46.87,-162.84 -48.36,-16.74 -116.18,39.59 -175.18,49.46 -73.97,12.37 -162.45,-21.78 -233.48,-1.06z"/>
   <path class="fil7" d="M2211.32 2711.23c7.62,66.2 36.07,64.12 63.12,99.39l139.33 372.21c-24.24,-2.55 -96.87,-10.14 -122.65,-1.61 -25.43,8.4 -16.65,-1.62 -23.02,23.96l31.05 6.94c43.64,3.2 40,-4.37 105.06,7.9 50.45,9.51 69.25,31.06 112.39,46.45 17.94,-11.93 22.46,-29.96 22.46,-29.96 25.07,15.2 46.8,27.55 76.44,15.14 -6.7,-54.19 -35.4,2.29 -16.52,-34.01 29.28,-4.72 31.86,18.08 54.18,-12.46 -9.17,-21.89 -0.27,-17.87 -34.71,-20.81 -43.89,-3.73 -89.76,4.68 -154.29,-0.67 -23.2,-72.26 -113.81,-316.55 -120.74,-367.93 13.43,-17.06 29.57,-25.46 41.66,-41.97 5.97,-8.14 12.73,-18.35 12.66,-33.57 -0.17,-36.39 5.01,-18.55 -16.8,-31.39 -10.64,92.29 -78.2,98.31 -125.78,38.81 -42.02,-52.54 42.1,-112.33 6.84,-178.01l-50.65 141.6z"/>
   <path class="fil7" d="M2074.16 1320.33c39.22,30.19 119.44,86.11 174.05,57.61 -10.29,-25.27 -25.03,-26.78 -39.63,-58.72 -14.27,-31.23 -5.89,-53.28 -28.03,-69.85 -16.25,-12.16 -99.48,-44.63 -106.39,70.96z"/>
   <path class="fil7" d="M2381.99 1204.93c-86.05,-48.74 -183.81,20.1 -146.55,71.38 39.98,55.04 161.55,60.61 146.55,-71.38z"/>
   <path class="fil7" d="M2690.49 3281.73c-4.23,-26.84 -2.33,-23.29 -24.69,-32.57 -12.12,-5.03 -28.03,-13.29 -35.87,3.18 -14.59,30.63 39.09,38.15 60.56,29.4z"/>
   <path class="fil7" d="M2275.4 3257.6c8.7,32.41 37.87,39.68 47.91,0 -3.7,-2.67 11.7,-11.44 -23.89,-10.76 -41,0.77 -14.2,3.06 -24.02,10.76z"/>
   <path class="fil7" d="M1975.95 3211.23c3.9,34.03 -11.17,16.33 13.63,28.08 11.69,5.53 26.69,1.11 26.69,-11.67 0,-28.87 -26.86,-27.05 -40.32,-16.42z"/>
  </g>
 </g>
</svg>
