<?xml version="1.0" encoding="UTF-8"?>
<!DOCTYPE svg PUBLIC "-//W3C//DTD SVG 1.0//EN" "http://www.w3.org/TR/2001/REC-SVG-20010904/DTD/svg10.dtd">
<!-- Creator: CorelDRAW 2021 (64-Bit) -->
<svg xmlns="http://www.w3.org/2000/svg" xml:space="preserve" width="240px" height="240px" version="1.0" style="shape-rendering:geometricPrecision; text-rendering:geometricPrecision; image-rendering:optimizeQuality; fill-rule:evenodd; clip-rule:evenodd"
viewBox="0 0 240000 240000"
 xmlns:xlink="http://www.w3.org/1999/xlink"
 xmlns:xodm="http://www.corel.com/coreldraw/odm/2003">
 <defs>
  <style type="text/css">
   <![CDATA[
    .fil7 {fill:black}
    .fil6 {fill:#FFAF74}
    .fil1 {fill:#FFAF74}
    .fil5 {fill:white}
    .fil0 {fill:white}
    .fil4 {fill:black;fill-rule:nonzero}
    .fil3 {fill:black;fill-rule:nonzero}
    .fil2 {fill:#FFAF74;fill-rule:nonzero}
   ]]>
  </style>
 </defs>
 <g id="Layer_x0020_1">
  <metadata id="CorelCorpID_0Corel-Layer"/>
  <rect class="fil0" width="240000" height="240000"/>
  <path class="fil1" d="M120330 29600c49890,0 90330,40440 90330,90320 0,49890 -40440,90330 -90330,90330 -49880,0 -90320,-40440 -90320,-90330 0,-49880 40440,-90320 90320,-90320z"/>
  <path class="fil2" d="M16310 135770c110,580 70,1180 -120,1800 -190,620 -530,1140 -1030,1560 -490,420 -1040,680 -1630,790 -960,190 -1830,0 -2640,-560 -800,-560 -1290,-1320 -1480,-2290 -180,-970 0,-1860 540,-2670 550,-810 1300,-1310 2250,-1490 600,-120 1200,-70 1810,140 610,210 1120,570 1520,1070 410,510 670,1060 780,1650zm3580 15480c160,570 170,1180 30,1810 -140,630 -440,1180 -890,1640 -460,450 -980,760 -1570,930 -930,250 -1820,140 -2670,-350 -850,-490 -1400,-1210 -1660,-2150 -270,-960 -160,-1860 310,-2720 480,-850 1180,-1410 2120,-1670 590,-160 1190,-160 1820,-10 620,160 1160,480 1600,950 450,470 750,990 910,1570zm13290 27640c310,500 500,1080 550,1720 50,650 -80,1260 -380,1830 -310,570 -720,1020 -1230,1340 -820,520 -1710,670 -2660,450 -950,-230 -1690,-750 -2210,-1580 -530,-840 -700,-1740 -490,-2690 210,-960 720,-1690 1540,-2210 520,-330 1100,-510 1740,-540 650,-30 1250,120 1810,440 560,320 1000,740 1330,1240zm9240 11730c410,430 700,950 880,1570 180,630 180,1250 0,1870 -190,620 -500,1140 -930,1560 -700,670 -1540,1000 -2520,970 -980,-30 -1810,-400 -2490,-1100 -690,-720 -1020,-1560 -1010,-2540 10,-970 360,-1800 1060,-2470 440,-430 970,-720 1600,-880 620,-160 1240,-140 1860,70 620,200 1130,520 1550,950zm156110 -350c390,-450 880,-800 1480,-1040 600,-240 1220,-300 1860,-180 630,120 1180,380 1640,770 740,630 1150,1430 1220,2410 70,970 -210,1840 -850,2580 -640,760 -1440,1180 -2420,1270 -970,90 -1830,-190 -2570,-810 -460,-400 -810,-900 -1030,-1500 -220,-610 -260,-1230 -120,-1860 140,-640 410,-1180 790,-1640zm9510 -12300c320,-500 760,-910 1330,-1220 570,-310 1170,-450 1820,-410 650,40 1220,220 1730,560 810,530 1320,1270 1510,2230 190,960 20,1850 -520,2670 -540,830 -1290,1350 -2240,1560 -950,210 -1840,50 -2650,-480 -510,-340 -920,-790 -1210,-1360 -300,-580 -420,-1190 -360,-1830 60,-650 260,-1220 590,-1720zm13000 -27500c150,-580 440,-1100 880,-1580 440,-480 970,-800 1590,-970 630,-170 1230,-170 1820,-20 940,240 1650,790 2140,1640 490,850 610,1750 360,2700 -250,950 -790,1680 -1630,2190 -840,500 -1730,620 -2670,380 -590,-150 -1120,-450 -1580,-900 -460,-450 -770,-1000 -910,-1630 -150,-630 -150,-1230 0,-1810zm3350 -15080c70,-590 280,-1150 650,-1680 370,-540 850,-930 1450,-1180 590,-250 1190,-350 1790,-280 970,120 1750,560 2350,1330 600,770 840,1650 730,2620 -120,990 -560,1790 -1320,2400 -760,610 -1620,860 -2590,750 -600,-70 -1170,-300 -1690,-680 -510,-380 -890,-880 -1130,-1480 -230,-600 -310,-1200 -240,-1800z"/>
  <path id="_1" class="fil3" d="M25550 165480c240,540 340,1130 300,1780 -40,650 -250,1230 -630,1760 -380,520 -840,910 -1400,1160 -880,400 -1780,420 -2690,70 -910,-360 -1570,-980 -1980,-1880 -410,-900 -440,-1810 -100,-2730 330,-910 940,-1570 1830,-1970 560,-250 1150,-350 1800,-290 640,60 1220,290 1730,690 510,390 890,860 1140,1410zm189970 -810c240,-540 610,-1020 1120,-1420 510,-400 1090,-630 1730,-690 650,-60 1250,30 1800,270 890,400 1500,1050 1850,1970 340,910 310,1820 -90,2720 -400,900 -1060,1540 -1970,1890 -900,360 -1800,340 -2690,-50 -560,-250 -1030,-630 -1410,-1150 -380,-520 -600,-1100 -640,-1750 -50,-650 50,-1240 300,-1790z"/>
  <path id="_2" class="fil4" d="M60580 216410l-2330 -1660c140,-180 200,-1080 190,-2690 -10,-1620 -130,-2500 -340,-2650l-100 -70c-730,1020 -1520,2200 -2380,3530l-2010 -1440c1720,-2280 3070,-4110 4050,-5480 1360,-1900 2460,-3610 3300,-5120l2240 1430c-1420,1830 -2660,3500 -3720,4990 -140,180 -400,560 -790,1110l110 70c140,100 830,-10 2070,-340 1240,-330 1910,-570 2030,-730l2260 1610c-110,160 -760,340 -1960,560 -1190,210 -2090,300 -2710,270l-80 110c240,660 360,1860 370,3600 10,1740 -60,2700 -200,2900zm10100 3310l-860 1620 -6310 -3160 900 -1510c400,-100 1430,-530 3100,-1290 1780,-810 2730,-1320 2820,-1510l70 -140c-1320,-660 -2570,-1220 -3730,-1690l850 -1590 6070 3030 -920 1510c-540,210 -1550,660 -3030,1360 -1720,820 -2630,1330 -2730,1530l-60 120c1260,630 2540,1210 3830,1720zm6290 3130c-180,410 -480,700 -910,890 -420,180 -890,160 -1390,-70 -430,-190 -700,-470 -820,-840 -120,-380 -100,-750 70,-1130 180,-400 480,-690 900,-870 420,-160 890,-140 1400,90 430,190 710,470 820,830 120,370 100,730 -70,1100zm13410 1630c-430,1250 -1180,2220 -2240,2920 -1060,690 -2230,820 -3500,370 -940,-330 -1540,-750 -1790,-1280l-110 -40 -300 270 -2070 -720c780,-2000 1570,-4130 2360,-6400 740,-2120 1310,-4070 1710,-5840l2580 740c-530,1330 -1090,2840 -1680,4540l100 30c780,-300 1670,-280 2680,70 1130,400 1880,1110 2260,2140 390,1030 390,2090 0,3200zm-2420 -590c250,-730 280,-1410 90,-2070 -190,-660 -610,-1110 -1260,-1330 -810,-290 -1490,-260 -2020,80 -690,1970 -1170,3470 -1430,4510 270,410 700,720 1290,920 780,270 1460,190 2040,-250 580,-430 1010,-1050 1290,-1860zm7620 6540l-2450 -580c380,-1210 750,-2610 1120,-4210 380,-1580 600,-2990 670,-4230l2680 350c-350,1140 -730,2600 -1150,4390 -360,1530 -650,2960 -870,4280zm3040 -11090c-100,410 -320,730 -670,970 -360,230 -790,290 -1290,180 -420,-100 -720,-310 -900,-630 -180,-320 -220,-660 -140,-1030 100,-410 320,-720 670,-960 360,-230 780,-290 1290,-170 430,100 740,310 910,630 170,310 210,650 130,1010zm9210 4620l-930 2010c-420,-260 -860,-440 -1320,-530 -900,-170 -1570,110 -2010,850 -450,2400 -780,4250 -990,5550l-2440 -460c450,-1790 780,-3260 990,-4410 280,-1430 380,-2810 320,-4150l2380 190c-20,680 -40,1080 -60,1190l140 30c730,-740 1560,-1020 2490,-850 450,90 920,280 1430,580zm10700 9370l-2210 -90c-30,-220 -30,-440 -20,-670l-140 -10c-720,520 -1620,750 -2680,660 -1190,-90 -2100,-580 -2740,-1480 -640,-910 -910,-1940 -820,-3100 100,-1340 570,-2470 1410,-3410 840,-930 1940,-1340 3300,-1240 880,70 1530,280 1940,640l130 10c110,-1440 150,-2890 120,-4360l2640 120c-210,1420 -410,3460 -620,6120 -200,2700 -310,4970 -310,6810zm-2180 -2250c150,-1950 230,-3560 230,-4840 -400,-330 -910,-510 -1500,-560 -820,-60 -1450,190 -1890,760 -450,570 -700,1280 -770,2150 -60,770 90,1440 430,2030 340,590 850,910 1540,960 910,70 1560,-100 1960,-500zm9380 1970l-2510 90c40,-1260 30,-2720 -30,-4360 -60,-1620 -220,-3040 -470,-4260l2670 -360c-30,1190 -20,2700 50,4540 50,1570 150,3020 290,4350zm10 -11490c20,410 -110,780 -390,1110 -280,320 -680,490 -1200,510 -430,10 -770,-110 -1030,-370 -260,-260 -390,-580 -400,-960 -20,-410 110,-780 390,-1100 280,-310 680,-480 1200,-500 440,-20 790,110 1040,360 240,260 380,580 390,950zm13040 10230l-2470 290c-40,-1550 -150,-3110 -330,-4690 -120,-950 -340,-1580 -660,-1890 -330,-300 -790,-420 -1370,-350 -710,80 -1350,390 -1930,940 310,2360 580,4500 800,6400l-2490 290c-120,-1910 -240,-3410 -360,-4500 -170,-1450 -480,-2810 -940,-4060l2350 -530 270 950 150 -20c760,-820 1690,-1290 2790,-1420 950,-110 1740,20 2370,400 620,370 1000,1150 1140,2330 20,180 40,420 60,710 10,300 40,600 80,910 100,820 280,2230 540,4240zm11380 -12770l190 1710c-950,210 -1510,480 -1680,810l20 110c470,370 760,830 890,1380 190,860 40,1660 -460,2400 -500,760 -1380,1270 -2650,1570 -620,140 -1140,210 -1560,200 -280,220 -400,450 -350,680 90,360 340,580 760,630 420,60 1330,-80 2740,-400 2430,-560 3830,-30 4210,1600 260,1140 -30,2170 -890,3080 -860,900 -2010,1520 -3460,1860 -2840,650 -4460,110 -4870,-1650 -120,-540 -70,-1040 160,-1490 230,-450 550,-770 950,-950l-30 -130c-580,-200 -950,-620 -1100,-1270 -150,-660 70,-1290 670,-1890l-30 -120c-1100,-260 -1760,-900 -2000,-1920 -200,-880 -30,-1690 510,-2440 540,-740 1510,-1280 2930,-1610 960,-220 1780,-220 2470,0l130 -30c-90,-1170 370,-1870 1370,-2100 390,-90 750,-100 1080,-30zm10 11870c-100,-440 -340,-720 -730,-840 -390,-120 -1000,-80 -1840,110 -680,160 -1370,290 -2070,390 -470,430 -630,950 -490,1570 270,1140 1180,1540 2730,1180 870,-200 1510,-520 1940,-960 430,-440 590,-920 460,-1450zm-2770 -7110c-120,-540 -390,-910 -810,-1100 -420,-200 -850,-250 -1300,-140 -460,100 -830,330 -1110,680 -280,350 -360,790 -240,1310 130,530 400,890 810,1090 410,190 860,230 1320,120 450,-100 810,-320 1090,-670 280,-340 360,-770 240,-1290zm10880 1200c150,420 120,850 -60,1270 -190,420 -550,720 -1070,900 -440,150 -840,130 -1180,-60 -340,-190 -580,-480 -710,-870 -150,-420 -120,-840 70,-1250 190,-410 550,-710 1080,-890 450,-150 840,-140 1170,50 340,180 570,470 700,850zm12440 -3570l-1980 980c-130,-170 -250,-370 -340,-580l-130 60c-380,810 -1060,1430 -2030,1870 -1090,500 -2130,500 -3120,20 -990,-490 -1730,-1260 -2210,-2330 -550,-1220 -680,-2440 -400,-3660 290,-1220 1060,-2110 2300,-2680 800,-360 1470,-480 2010,-370l120 -60c-600,-1310 -1260,-2600 -1990,-3880l2370 -1150c500,1330 1300,3220 2400,5660 1120,2470 2120,4510 3000,6120zm-3000 -930c-800,-1770 -1510,-3230 -2120,-4350 -510,-90 -1040,-10 -1580,230 -750,340 -1190,860 -1300,1580 -120,710 0,1460 360,2250 320,700 770,1220 1350,1580 580,350 1190,380 1810,100 840,-380 1330,-840 1480,-1390zm13590 -4990l-1860 1180c-220,-170 -380,-350 -480,-520l-110 60c-300,840 -950,1550 -1950,2140 -670,400 -1340,540 -1990,440 -660,-110 -1170,-460 -1530,-1070 -470,-800 -510,-1660 -120,-2580 390,-920 1440,-1900 3150,-2940 -50,-110 -100,-200 -140,-280 -340,-570 -700,-870 -1080,-880 -390,-20 -960,190 -1700,630 -810,470 -1540,1040 -2190,1710l-680 -1560c590,-680 1540,-1410 2870,-2190 970,-570 1840,-810 2610,-720 760,90 1440,640 2030,1640 130,220 350,630 680,1220 320,600 540,1000 660,1190 640,1090 1250,1940 1830,2530zm-3110 -380c-460,-690 -830,-1300 -1140,-1820 -1830,1080 -2470,2070 -1940,2990 370,620 960,700 1760,230 640,-380 1070,-840 1320,-1400zm8080 -13840c230,320 610,1600 1140,3840 600,2570 1070,4290 1400,5150 570,1470 750,2650 530,3520 -200,840 -840,1650 -1910,2420l-1190 -1320c630,-450 1020,-1000 1170,-1640 150,-640 10,-1260 -410,-1840 -430,-590 -1820,-1550 -4160,-2880 -2350,-1340 -3560,-2050 -3620,-2140l2330 -1700c130,180 960,850 2510,2030 1550,1170 2450,1930 2690,2260l110 -70c-210,-290 -620,-1290 -1220,-3000 -600,-1710 -1060,-2770 -1360,-3190l1990 -1440z"/>
  <path class="fil4" d="M20170 100390l-210 1780c-70,0 -630,240 -1700,740 -1230,580 -2250,1110 -3070,1610 -1110,680 -1690,1220 -1730,1600l-30 250c1410,180 3400,390 5940,640l-190 1530c-1870,-310 -3930,-600 -6200,-880 -2130,-250 -4010,-440 -5630,-560l190 -1530c1600,260 3230,480 4900,680l20 -180c40,-300 -650,-1140 -2050,-2520 -1400,-1380 -2190,-2070 -2370,-2100l200 -1690c180,30 860,690 2040,2010 1180,1320 1960,2290 2350,2910l90 10c340,-590 1670,-1490 3980,-2680 2140,-1100 3290,-1640 3470,-1620zm2140 -8290l-240 1270c-300,-10 -590,-40 -850,-100l-20 80c520,810 640,1780 380,2900 -140,620 -470,1100 -970,1440 -500,350 -1130,440 -1870,270 -920,-220 -1570,-730 -1970,-1560 -390,-820 -380,-2170 20,-4050 -140,-50 -300,-100 -480,-140 -730,-170 -1260,-110 -1590,180 -320,290 -570,790 -730,1500 -200,840 -270,1680 -230,2540l-1200 -420c-70,-860 20,-1800 260,-2840 220,-950 610,-1630 1170,-2040 550,-410 1360,-500 2410,-250 280,60 790,190 1510,390 730,190 1220,320 1460,370 1080,260 2060,410 2940,460zm-2060 1010c-910,-180 -1720,-360 -2440,-530 -230,1000 -330,1780 -280,2340 90,940 560,1510 1390,1710 810,190 1340,-230 1580,-1250 200,-880 120,-1630 -250,-2270zm3500 -9990l1380 530 -1940 5650 -1320 -530c-200,-370 -870,-1390 -2020,-3040 -1240,-1790 -1970,-2730 -2170,-2800l-100 -20c-570,1650 -980,2980 -1240,3980l-1340 -510 1850 -5380 1330 540c370,610 1060,1610 2050,2990 1240,1720 1970,2620 2190,2690l70 30c540,-1560 960,-2940 1260,-4130zm5080 -7920l-480 1200c-300,-70 -570,-150 -820,-260l-30 70c350,900 290,1870 -190,2930 -250,570 -660,980 -1220,1220 -560,250 -1190,220 -1890,-100 -860,-380 -1400,-1010 -1630,-1900 -230,-880 30,-2200 790,-3970 -120,-80 -270,-160 -440,-230 -690,-310 -1220,-350 -1600,-130 -370,230 -710,670 -1000,1340 -350,780 -590,1590 -710,2450l-1100 -640c100,-860 360,-1770 800,-2740 390,-890 910,-1480 1530,-1780 630,-300 1440,-230 2420,210 260,120 730,340 1410,670 680,330 1130,550 1360,650 1010,450 1950,790 2800,1010zm-2220 600c-850,-360 -1620,-690 -2290,-990 -420,940 -670,1690 -730,2250 -80,940 260,1590 1050,1940 760,340 1350,30 1780,-930 370,-820 430,-1580 190,-2270zm7150 -9560l-960 1670c-190,-110 -1160,-60 -2920,150 -1800,210 -2770,440 -2910,680l-30 50c1130,650 2480,1400 4050,2240l-720 1250c-1900,-1180 -3850,-2350 -5860,-3510 -2040,-1180 -3830,-2120 -5360,-2820l710 -1410c1110,710 3310,2020 6610,3920l20 -50c100,-150 -70,-900 -480,-2240 -420,-1340 -720,-2060 -900,-2170l910 -1570c160,100 390,720 670,1870 260,1080 430,2030 530,2860l60 30c840,-300 2120,-560 3860,-780 1640,-220 2540,-270 2720,-170zm5260 -7590l-860 1210c-1240,-1030 -2610,-2080 -4120,-3150 -800,-570 -1440,-830 -1910,-760 -480,70 -880,340 -1220,820 -480,670 -670,1470 -570,2420 2710,1930 4560,3220 5540,3870l-840 1170c-1280,-970 -3120,-2310 -5520,-4020 -2090,-1500 -3780,-2600 -5060,-3320l830 -1320c1490,1110 2880,2130 4180,3060l30 -40c-180,-1140 10,-2100 580,-2900 510,-710 1090,-1130 1740,-1270 660,-130 1450,130 2380,790 100,70 280,200 550,410 260,210 500,380 710,530 720,510 1900,1350 3560,2500zm3510 -8170c1350,1170 1350,2520 20,4060 -600,680 -1220,1250 -1890,1700l-850 -1070c700,-340 1320,-820 1860,-1440 790,-900 890,-1600 320,-2100 -280,-240 -590,-330 -920,-270 -340,60 -810,230 -1410,520 -770,360 -1390,570 -1860,620 -690,80 -1290,-100 -1790,-530 -520,-460 -820,-1030 -890,-1710 -70,-680 220,-1380 850,-2110 610,-710 1170,-1220 1680,-1530l830 1050c-590,280 -1130,710 -1640,1290 -690,790 -780,1410 -270,1860 260,220 550,310 860,270 310,-40 810,-220 1480,-530 730,-350 1330,-550 1790,-620 720,-80 1320,100 1830,540zm6080 -4650l790 890c-170,440 -390,790 -650,1070 -680,710 -1350,1000 -2000,870 -650,-120 -1500,-680 -2540,-1680 -670,-650 -1550,-1490 -2630,-2540 -210,220 -500,560 -890,1010l-920 -950c380,-350 710,-670 1000,-970 -270,-250 -880,-870 -1830,-1860l790 -1030c860,950 1490,1620 1890,2000 370,-380 890,-970 1560,-1760l950 980c-710,690 -1270,1250 -1680,1670 660,650 1410,1370 2240,2170 910,870 1590,1360 2050,1470 450,110 910,-70 1350,-540 150,-150 320,-420 520,-800zm7530 -4940l-940 880c-240,-190 -450,-380 -630,-590l-60 60c-60,950 -530,1810 -1410,2560 -480,410 -1020,610 -1640,590 -610,-20 -1160,-320 -1660,-900 -610,-710 -830,-1510 -670,-2410 170,-890 980,-1980 2420,-3260 -80,-120 -190,-250 -310,-400 -490,-570 -950,-830 -1390,-790 -430,50 -920,300 -1470,780 -660,560 -1220,1190 -1690,1920l-720 -1050c450,-740 1080,-1450 1890,-2140 740,-640 1450,-950 2150,-960 690,0 1390,410 2090,1220 190,220 520,630 990,1210 470,590 790,980 960,1170 720,840 1420,1550 2090,2110zm-2250 -410c-630,-680 -1180,-1310 -1660,-1870 -780,670 -1320,1250 -1610,1720 -480,820 -440,1550 120,2210 540,630 1210,600 2000,-80 680,-590 1070,-1250 1150,-1980zm10400 -5630l-1210 870c-840,-1380 -1810,-2840 -2920,-4380 -540,-760 -1060,-1180 -1540,-1260 -470,-90 -970,60 -1490,430 -620,450 -1020,1120 -1190,2010 1220,1690 2540,3520 3970,5470l-1210 870c-1140,-1740 -1980,-2980 -2520,-3740 -830,-1160 -1730,-2210 -2710,-3160l1030 -1030 780 820 60 -40c180,-1140 640,-1980 1390,-2510 740,-530 1440,-760 2100,-690 670,80 1330,580 2000,1520 70,90 200,280 390,560 190,290 320,480 390,570 590,830 1490,2060 2680,3690zm12070 -10820c530,1060 530,2080 20,3060 -510,960 -1440,1780 -2820,2470 -380,190 -1130,550 -2260,1070 -780,-1730 -1680,-3610 -2700,-5650 -960,-1920 -1840,-3590 -2640,-5010l880 -440c170,-90 510,-260 1020,-540 510,-280 880,-470 1120,-590 2030,-1020 3430,-740 4220,820 610,1230 540,2280 -220,3170l40 80c1500,-410 2610,110 3340,1560zm-1170 760c-670,-1340 -2070,-1480 -4200,-410 -390,190 -730,380 -1010,560 730,1460 1410,2750 2030,3870 220,-50 550,-190 1020,-420 1180,-590 1930,-1180 2250,-1770 280,-530 250,-1140 -90,-1830zm-3020 -4540c-560,-1130 -1530,-1350 -2890,-670 -680,340 -1220,660 -1600,950 230,380 810,1480 1730,3310 240,-110 510,-240 800,-390 960,-480 1610,-950 1920,-1420 360,-520 380,-1110 40,-1780zm9980 5310l-1380 550c-380,-1160 -860,-2470 -1430,-3930 -650,-1640 -1290,-2980 -1910,-4020l1430 -840c410,1210 960,2680 1640,4400 540,1360 1090,2640 1650,3840zm-3900 -10760c110,290 130,570 40,850 -80,280 -270,480 -580,600 -260,110 -490,90 -710,-30 -220,-130 -380,-320 -480,-580 -120,-290 -130,-570 -40,-850 90,-280 290,-480 590,-600 250,-100 490,-80 700,40 220,130 380,320 480,570zm8840 -290l120 1500c-460,-40 -870,0 -1210,110 -980,330 -1430,1070 -1370,2200 910,2660 1560,4510 1950,5560l-1370 460c-540,-1860 -990,-3290 -1330,-4300 -470,-1370 -1040,-2640 -1710,-3810l1280 -680c320,600 510,1010 590,1220l60 -20c240,-1110 740,-1790 1480,-2040 400,-140 900,-200 1510,-200zm11700 5920l-1180 320c-100,-250 -190,-510 -250,-800l-90 20c-400,810 -1160,1340 -2260,1590 -1010,240 -1910,10 -2690,-670 -790,-680 -1320,-1600 -1590,-2760 -300,-1320 -230,-2530 210,-3630 450,-1110 1280,-1800 2490,-2080 860,-200 1520,-140 1980,160l70 -10c-340,-1480 -720,-2920 -1120,-4320l1500 -410c250,1530 660,3520 1220,5970 580,2480 1140,4690 1710,6620zm-1690 -1460c-430,-1850 -890,-3620 -1370,-5310 -530,-300 -1110,-380 -1750,-230 -900,210 -1500,700 -1790,1470 -290,770 -320,1660 -90,2680 210,900 600,1610 1160,2130 570,520 1230,700 1980,530 940,-220 1560,-640 1860,-1270zm15180 -9360c40,370 -250,1850 -880,4450 -630,2600 -910,4110 -860,4520l-1110 140c-30,-230 -410,-1080 -1140,-2550 -900,-1800 -1560,-3220 -1970,-4240l-70 10c-130,1050 -390,2580 -790,4580 -320,1590 -460,2500 -430,2730l-1110 140c-50,-350 -660,-1760 -1850,-4210 -1190,-2450 -1800,-3820 -1840,-4110l1450 -170c40,310 490,1420 1370,3340 870,1910 1330,3030 1370,3350l90 -10c-60,-490 120,-1730 540,-3710 420,-1980 610,-3130 570,-3450l1390 -170c30,280 510,1400 1440,3360 920,1960 1400,3060 1430,3320l80 -10c-40,-370 110,-1530 470,-3490 360,-1960 510,-3180 460,-3650l1390 -170zm9770 8440l-1280 90c-70,-290 -120,-580 -120,-850l-80 10c-660,700 -1560,1070 -2720,1110 -630,20 -1170,-170 -1640,-570 -460,-400 -710,-980 -730,-1740 -30,-940 300,-1710 990,-2300 700,-590 2000,-930 3930,-1020 10,-150 20,-320 10,-510 -20,-750 -220,-1240 -580,-1480 -370,-240 -920,-350 -1640,-330 -860,30 -1700,180 -2520,440l100 -1270c810,-290 1750,-450 2810,-480 970,-30 1730,170 2270,600 550,440 840,1190 870,2270 10,290 10,810 10,1560 0,760 0,1260 10,1510 40,1110 140,2100 310,2960zm-1500 -1730c-60,-930 -100,-1760 -120,-2500 -1020,30 -1800,140 -2330,330 -890,330 -1320,930 -1290,1790 20,830 560,1230 1610,1200 900,-30 1610,-300 2130,-820zm9280 1000l-190 1180c-440,140 -850,200 -1230,170 -980,-70 -1630,-400 -1950,-990 -320,-580 -420,-1590 -310,-3030 70,-930 170,-2140 290,-3640 -300,-20 -750,-40 -1350,-40l150 -1320c520,70 980,120 1390,150 30,-360 120,-1220 280,-2590l1290 -50c-190,1270 -310,2190 -350,2740 530,40 1320,70 2360,90l-160 1350c-980,-110 -1760,-190 -2360,-230 -80,920 -160,1950 -250,3100 -90,1250 -40,2090 170,2510 200,430 630,660 1270,710 210,20 530,-20 950,-110zm8630 870l-230 1200c-470,230 -1080,300 -1810,210 -1410,-170 -2430,-740 -3070,-1690 -630,-960 -880,-2050 -730,-3280 160,-1290 680,-2360 1580,-3200 890,-840 1980,-1180 3270,-1020 640,80 1160,220 1550,410l-400 1400c-540,-310 -1100,-500 -1690,-570 -760,-90 -1410,140 -1940,680 -530,550 -850,1270 -960,2170 -120,980 50,1830 520,2560 460,720 1190,1130 2180,1250 410,50 980,10 1730,-120zm9270 3610l-1450 -330c480,-1540 930,-3210 1350,-5010 220,-960 210,-1650 -30,-2060 -240,-410 -650,-680 -1220,-820 -800,-180 -1620,-50 -2460,400 -750,3250 -1240,5440 -1460,6600l-1410 -330c420,-1560 950,-3770 1620,-6640 590,-2510 970,-4490 1140,-5940l1540 260c-460,1800 -880,3480 -1240,5030l50 10c980,-600 1950,-780 2900,-560 850,200 1460,570 1840,1130 370,550 430,1380 170,2490 -20,120 -80,340 -170,670 -90,320 -160,610 -220,860 -200,860 -510,2270 -950,4240zm4540 1430l-1400 -480c470,-1130 960,-2440 1470,-3920 570,-1670 960,-3100 1170,-4290l1630 300c-480,1180 -1020,2650 -1620,4400 -480,1380 -890,2710 -1250,3990zm4050 -10710c-100,290 -280,520 -520,680 -250,160 -530,180 -830,80 -270,-100 -440,-260 -520,-500 -90,-240 -80,-490 10,-750 100,-290 270,-510 520,-670 250,-150 530,-170 840,-60 250,80 420,240 500,480 90,240 80,490 0,740zm5510 14370l-1390 -560c710,-1450 1420,-3050 2130,-4810 340,-870 430,-1530 240,-1980 -190,-450 -580,-790 -1170,-1020 -720,-290 -1500,-270 -2340,70 -770,1940 -1600,4030 -2480,6290l-1390 -560c860,-1890 1460,-3270 1810,-4130 530,-1320 930,-2650 1210,-3990l1420 320 -270 1100 60 30c1060,-460 2010,-520 2870,-180 840,340 1410,810 1710,1410 290,600 220,1430 -210,2500 -40,110 -130,320 -270,630 -130,310 -220,520 -270,630 -380,950 -930,2360 -1660,4250zm14270 -3890l-690 1060c-910,-450 -1490,-550 -1750,-260l-40 80c100,580 10,1140 -270,1690 -430,850 -1030,1420 -1810,1720 -780,300 -1690,190 -2730,-340 -460,-230 -810,-470 -1020,-720 -340,70 -580,250 -720,530 -180,350 -150,650 70,910 290,330 1000,790 2140,1370 1860,940 2440,2090 1740,3460 -490,980 -1270,1610 -2310,1890 -1050,280 -2140,130 -3290,-450 -1180,-590 -1890,-1260 -2150,-1990 -260,-720 -220,-1420 120,-2090 310,-610 680,-1040 1110,-1290 440,-240 860,-320 1270,-220l40 -70c-280,-400 -270,-900 20,-1490 270,-530 750,-880 1440,-1030l40 -70c-190,-270 -320,-640 -380,-1090 -60,-460 30,-940 290,-1440 440,-860 1050,-1440 1840,-1720 780,-290 1660,-190 2630,300 800,400 1340,880 1630,1430l80 40c620,-840 1260,-1090 1930,-760 350,180 610,360 770,550zm-6460 9500c260,-510 280,-950 50,-1330 -230,-380 -800,-800 -1720,-1270 -630,-310 -1180,-630 -1660,-960 -760,20 -1300,340 -1610,960 -670,1330 -230,2390 1330,3180 810,410 1550,560 2200,450 660,-120 1130,-460 1410,-1030zm2370 -7190c300,-600 360,-1150 180,-1640 -170,-480 -520,-860 -1040,-1130 -500,-240 -990,-300 -1470,-160 -490,140 -880,490 -1160,1060 -300,590 -360,1130 -180,1620 180,480 540,850 1070,1120 490,250 970,300 1450,160 480,-130 870,-480 1150,-1030zm12510 13590l-880 1050c-680,-200 -1340,-540 -1980,-1000 -1530,-1090 -2350,-2380 -2450,-3860 -100,-1490 330,-2900 1290,-4260 1010,-1410 2310,-2330 3900,-2740 1590,-420 3110,-110 4560,930 400,280 780,650 1130,1100l-1040 1060c-380,-550 -770,-960 -1170,-1250 -1080,-770 -2160,-970 -3250,-630 -1090,350 -2010,1070 -2780,2150 -790,1090 -1140,2260 -1060,3500 80,1250 690,2270 1820,3080 430,300 1070,600 1910,870zm9820 4330c-1010,1190 -2110,1850 -3290,1990 -1180,150 -2180,-140 -3010,-840 -770,-660 -1180,-1520 -1230,-2590 -50,-1060 380,-2130 1300,-3200 1030,-1200 2130,-1870 3320,-2010 1190,-150 2190,130 3020,830 770,670 1180,1530 1220,2600 40,1070 -400,2140 -1330,3220zm-1280 -680c620,-720 1000,-1510 1160,-2350 160,-840 -70,-1520 -670,-2030 -590,-510 -1280,-640 -2060,-380 -780,260 -1470,740 -2070,1440 -630,730 -1010,1510 -1170,2350 -150,840 70,1520 680,2040 590,510 1280,640 2060,370 780,-260 1470,-740 2070,-1440zm11140 10650c740,-640 1120,-1180 1160,-1610 40,-440 -170,-920 -620,-1440 -390,-440 -1030,-680 -1920,-730 -570,470 -1130,940 -1670,1410 -770,670 -1900,1680 -3410,3030l-980 -1130c1400,-1050 2770,-2160 4120,-3340 740,-640 1120,-1180 1160,-1610 40,-440 -160,-910 -600,-1410 -440,-520 -1100,-790 -1980,-810 -1460,1270 -3150,2750 -5070,4450l-980 -1130c1640,-1280 2810,-2230 3500,-2830 1070,-930 2030,-1930 2900,-3010l1120 940 -740 830 50 70c1080,0 1900,330 2470,980 850,980 1090,1870 730,2690l50 60c1160,90 2000,440 2530,1050 600,690 880,1360 850,2010 -30,650 -480,1350 -1340,2100 -90,80 -260,220 -530,440 -270,210 -440,360 -530,440 -760,670 -1900,1670 -3420,3010l-970 -1120c1290,-960 2660,-2070 4120,-3340zm8840 12920c820,-530 1290,-1000 1390,-1430 100,-420 -30,-930 -400,-1510 -320,-490 -910,-830 -1790,-1010 -640,380 -1260,760 -1860,1150 -860,540 -2130,1370 -3820,2490l-800 -1260c1530,-840 3050,-1730 4570,-2700 820,-520 1280,-990 1390,-1420 100,-420 -30,-920 -390,-1480 -360,-580 -980,-940 -1840,-1100 -1630,1040 -3520,2260 -5670,3650l-800 -1260c1800,-1020 3100,-1790 3880,-2280 1190,-760 2290,-1610 3310,-2550l970 1100 -860 710 50 80c1060,160 1830,610 2290,1340 700,1090 800,2010 320,2760l50 70c1120,260 1900,730 2340,1410 490,770 670,1480 540,2120 -130,640 -670,1260 -1640,1880 -100,60 -290,180 -580,350 -300,180 -490,300 -590,360 -860,540 -2140,1370 -3830,2470l-800 -1260c1420,-750 2940,-1640 4570,-2680zm620 13130l-580 -1130c290,-210 530,-360 730,-450l-40 -80c-920,-380 -1590,-1040 -2020,-1980 -390,-860 -440,-1590 -160,-2190 290,-610 1140,-1220 2550,-1860 200,-90 500,-220 900,-390 390,-170 670,-280 810,-350 820,-370 1760,-850 2830,-1430l690 1360c-1100,420 -2030,810 -2800,1160 -1750,790 -2840,1400 -3280,1840 -440,450 -500,1020 -180,1730 360,790 880,1350 1550,1670 3100,-1400 5170,-2370 6220,-2910l660 1320c-1060,440 -2510,1070 -4360,1900 -1180,540 -2360,1140 -3520,1790zm3600 9490l-480 -1410c1550,-410 3230,-920 5030,-1530 890,-300 1440,-670 1660,-1110 210,-430 220,-950 10,-1550 -250,-730 -770,-1310 -1580,-1720 -1970,670 -4100,1410 -6380,2210l-490 -1410c2000,-580 3440,-1030 4310,-1320 1350,-470 2630,-1030 3820,-1690l680 1290 -1010 510 30 60c1030,500 1700,1190 2000,2070 290,850 300,1590 40,2210 -270,610 -940,1100 -2030,1470 -110,40 -330,110 -650,210 -330,100 -550,170 -660,200 -960,330 -2400,830 -4300,1510zm1330 4560l-400 -1420c1200,-260 2550,-600 4060,-1020 1700,-480 3100,-970 4200,-1480l680 1510c-1250,290 -2760,670 -4540,1170 -1410,400 -2750,810 -4000,1240zm11110 -2750c-300,80 -580,70 -850,-50 -270,-110 -450,-320 -540,-640 -70,-260 -30,-500 110,-700 150,-210 360,-350 630,-420 300,-90 580,-70 840,50 270,120 450,340 540,650 70,260 30,490 -120,690 -150,210 -350,340 -610,420zm-8080 10040l-1180 180c-270,-380 -440,-760 -530,-1130 -220,-960 -100,-1680 360,-2150 470,-480 1400,-880 2800,-1210 910,-210 2100,-480 3570,-800 -70,-300 -190,-730 -360,-1310l1300 -250c90,520 170,970 260,1370 360,-80 1210,-250 2570,-500l420 1220c-1260,190 -2170,350 -2710,480 120,520 330,1280 620,2280l-1340 250c-190,-970 -350,-1740 -480,-2320 -900,200 -1910,420 -3040,680 -1220,290 -2010,590 -2350,910 -340,320 -440,800 -290,1430 40,200 170,500 380,870zm8650 8170c-390,50 -1680,-210 -3860,-780 -2500,-650 -4240,-1030 -5250,-1130 -1620,-190 -2670,-410 -3140,-680 -650,-360 -1040,-1100 -1170,-2210l1260 -220c80,680 410,1210 980,1600 570,390 1240,530 2020,440 670,-80 2210,-780 4610,-2080 2410,-1300 3640,-1960 3690,-1970l210 1690c-160,20 -1230,490 -3180,1430 -1960,930 -3180,1420 -3650,1480l10 80c390,-50 1570,100 3530,450 1960,350 3210,490 3760,420l180 1480z"/>
  <g id="_2465862463040">
   <path class="fil5" d="M114010 70120l-470 2200c1560,800 4270,3440 4810,5420 -1020,1400 -2410,1840 -2420,4430 1290,520 220,-100 1000,730 150,150 420,650 610,900 4310,9180 4400,7310 -3230,12550 -6450,4430 -12790,11270 -15640,18370 1840,-710 9450,-4320 10750,-4460 -520,1840 -6720,6420 -8750,7970 -1080,830 -4280,2650 -4790,3590 -700,1300 -980,5020 -1520,6560 3380,-410 17120,-12360 19290,-12820 -820,2440 -6860,8790 -8600,10480 -1730,1670 -3020,2940 -4930,4620 -6300,5570 -7010,1880 -7280,11630 -70,2610 -220,6620 1470,7880 2250,1670 5680,-200 7440,-1110 2590,-1330 4090,-2030 7370,-2660l1000 -310 1570 80c1320,-2900 2450,-3300 970,-7120 -760,-1930 -280,-1750 -20,-2060 5240,7270 -630,8160 -190,13330 1480,2740 6710,4470 8700,1380 1990,-3060 -950,-8890 1690,-12050 1080,1250 -20,210 20,3800 10,1530 360,2570 420,4130l570 920 1750 -70 2580 -7220c1800,3350 -2490,6400 -340,9080 2420,3030 5870,2720 6410,-1980l440 -2690 -4210 610c430,-500 70,-190 660,-600 420,-280 110,-120 770,-400 420,-180 830,-270 1430,-460 17130,-5510 22880,-18950 22780,-37610 -60,-12930 -3350,-27850 -11030,-37550 -5380,-6780 -3130,-6590 -4990,-10930 -4240,-300 -11660,1980 -15730,3020 -6480,1660 -8160,2740 -10360,8420z"/>
   <path class="fil6" d="M126990 112140c-4450,1400 -7150,-200 -10170,3540 -1200,1480 -1120,3620 -210,5300 990,1800 2360,2240 3490,3370 -2770,540 -7150,250 -8520,2930 -2050,4020 3740,6150 4350,6520 -4380,300 -12650,860 -14300,5790 7410,-4700 9610,-5060 21120,-2910 3230,610 16070,3410 18190,-1520 410,-930 180,-610 290,-1280l290 -1650c4430,-900 7710,-2540 9120,-5710 2960,-6690 -5490,-7630 -6310,-7900 2510,-1620 8620,-3370 8540,-8410 -130,-8300 -11270,-2800 -18530,-4690 -2160,-560 -4400,-1970 -6180,-2090 -4880,-310 -5260,5000 -3740,7100 770,1050 1300,820 2570,1610z"/>
   <path class="fil7" d="M109120 146400c-3280,630 -4780,1330 -7370,2660 -1760,910 -5190,2780 -7440,1110 -1690,-1260 -1540,-5270 -1470,-7880 270,-9750 980,-6060 7280,-11630 1910,-1680 3200,-2950 4930,-4620 1740,-1690 7780,-8040 8600,-10480 -2170,460 -15910,12410 -19290,12820 540,-1540 820,-5260 1520,-6560 510,-940 3710,-2760 4790,-3590 2030,-1550 8230,-6130 8750,-7970 -1300,140 -8910,3750 -10750,4460 2850,-7100 9190,-13940 15640,-18370 7630,-5240 7540,-3370 3230,-12550 -1480,-100 -420,-150 -810,440 550,2230 1890,4730 2240,6970 -10740,6710 -17420,11960 -23070,23780 -2630,5490 -3720,11190 -4470,18850 -550,5670 -6730,9750 -11040,12600 -2240,1480 -4390,2990 -6890,4580 -2100,1350 -5760,3090 -6610,5260 -1660,4210 2280,4910 5080,6330 2720,1380 5740,2390 8920,2910 3530,580 7880,30 11010,-700 7920,-1850 5520,-5380 11350,-12320 3200,-3820 4890,-3590 5870,-6100z"/>
   <path class="fil7" d="M114010 70120c2200,-5680 3880,-6760 10360,-8420 4070,-1040 11490,-3320 15730,-3020 1860,4340 -390,4150 4990,10930 7680,9700 10970,24620 11030,37550 100,18660 -5650,32100 -22780,37610 -600,190 -1010,280 -1430,460 -660,280 -350,120 -770,400 -590,410 -230,100 -660,600l4210 -610c2120,-1170 7610,-1760 13360,-7890 12250,-13070 11970,-34760 7480,-51400 -1490,-5520 -3360,-10950 -6410,-15000 -2190,-2910 -5220,-5810 -6310,-9730 -1630,-5880 -540,-6580 -18550,-1520 -5400,1510 -8700,2790 -10520,8260 -520,1550 -510,1210 270,1780z"/>
   <path class="fil7" d="M115930 82170c10,-2590 1400,-3030 2420,-4430 -540,-1980 -3250,-4620 -4810,-5420 -9050,3110 -15610,5410 -22070,12270 -2130,2270 -1350,2590 -1350,2600l670 670c430,-20 350,30 760,-100 470,-140 950,-480 1260,-660 1000,-560 1700,-930 2800,-1430 12520,-5750 16240,-2770 20320,-3500z"/>
   <path class="fil7" d="M110120 146090c50,50 160,50 180,150l1050 640c-2550,6400 2540,6130 3960,9040 2310,4750 4690,13580 5630,18960 -2180,-310 -3350,-1300 -5050,-560 190,2120 -30,1120 3920,2340 4370,1350 8830,6010 10280,6570 970,370 -1390,-100 490,120 1020,120 810,-370 810,-370 0,10 1060,-190 -1370,-2010 -990,-750 -1610,-1150 -2310,-2060 2590,640 5760,3470 7810,2810 -360,-2540 -3180,-2560 -6360,-4110 -1590,-770 -980,-760 -1680,-2060l-3810 -130 -5040 -20100c4030,-1270 4710,-2830 4650,-7740 -60,-1560 -410,-2600 -420,-4130 -40,-3590 1060,-2550 -20,-3800 -2640,3160 300,8990 -1690,12050 -1990,3090 -7220,1360 -8700,-1380 -440,-5170 5430,-6060 190,-13330 -260,310 -740,130 20,2060 1480,3820 350,4220 -970,7120l-1570 -80z"/>
   <path class="fil7" d="M126060 94330c-1090,3480 11360,16290 18450,5840 970,-1420 3380,-6110 2390,-8310 -2460,-850 -5920,2020 -8930,2530 -3780,630 -8290,-1110 -11910,-60z"/>
   <path class="fil7" d="M125600 148430c390,3380 1840,3270 3220,5070l7110 18980c-1240,-130 -4940,-510 -6260,-80 -1300,430 -850,-80 -1170,1220l1580 360c2230,160 2040,-220 5360,400 2570,490 3530,1590 5730,2370 920,-610 1150,-1530 1150,-1530 1280,780 2390,1410 3900,780 -340,-2770 -1810,110 -850,-1740 1500,-240 1630,920 2770,-640 -470,-1110 -20,-910 -1770,-1060 -2240,-190 -4580,240 -7870,-30 -1190,-3690 -5810,-16150 -6160,-18770 680,-870 1510,-1300 2120,-2140 310,-410 650,-940 650,-1710 -10,-1860 250,-950 -860,-1600 -540,4700 -3990,5010 -6410,1980 -2150,-2680 2140,-5730 340,-9080l-2580 7220z"/>
   <path class="fil7" d="M118600 77480c2010,1540 6100,4390 8880,2940 -520,-1290 -1270,-1370 -2020,-3000 -730,-1590 -300,-2720 -1430,-3560 -830,-620 -5070,-2280 -5430,3620z"/>
   <path class="fil7" d="M134310 71590c-4390,-2480 -9380,1030 -7480,3640 2040,2810 8240,3090 7480,-3640z"/>
   <path class="fil7" d="M150040 177530c-210,-1370 -120,-1190 -1260,-1660 -610,-260 -1430,-680 -1830,160 -740,1560 2000,1950 3090,1500z"/>
   <path class="fil7" d="M128870 176300c440,1650 1930,2020 2440,0 -180,-140 600,-580 -1220,-550 -2090,40 -720,160 -1220,550z"/>
   <path class="fil7" d="M113600 173930c190,1740 -570,840 690,1440 600,280 1360,50 1360,-600 0,-1470 -1370,-1380 -2050,-840z"/>
  </g>
 </g>
</svg>
